<svg width="670" height="400" viewBox="0 0 670 400" fill="none" xmlns="http://www.w3.org/2000/svg">
<path d="M600.502 79.507L604.87 70.1614C602.389 64.0318 601.738 57.088 603.479 50.0973C607.408 34.3234 622.837 23.5503 639.309 25.1066C660 27.0613 673.931 46.5629 668.747 66.3145C664.59 82.1549 648.816 92.7249 632.26 90.8034C623.794 89.8212 616.514 85.8826 611.268 80.2159L611.276 80.2315L600.502 79.507Z" fill="white"/>
<path d="M600.339 79.5545C600.339 79.5545 600.598 79.5565 601.069 79.5779C601.573 79.6033 602.263 79.6385 603.153 79.6834C605 79.7849 607.669 79.9333 611.125 80.1267L610.976 80.3493L610.968 80.3336C610.928 80.2594 610.958 80.1657 611.034 80.1267C611.098 80.0935 611.177 80.111 611.223 80.1598C614.138 83.251 618.626 86.84 624.941 88.9861C628.073 90.0815 631.654 90.7064 635.469 90.7591C639.282 90.8158 643.355 90.228 647.356 88.7908C651.352 87.3614 655.266 85.0846 658.659 81.9798C662.055 78.8828 664.918 74.9539 666.809 70.4471C670.622 61.4803 670.166 50.0257 664.315 40.9183L663.213 39.2214L661.961 37.6378C661.179 36.5423 660.152 35.6597 659.26 34.6735C657.296 32.8751 655.22 31.2095 652.924 29.9382C648.392 27.3099 643.343 25.8141 638.366 25.4392C633.381 25.0994 628.495 25.8825 624.147 27.513C619.788 29.1396 615.967 31.5961 612.885 34.4959C606.689 40.3325 603.573 47.7489 602.813 54.2065C602.001 60.7226 603.298 66.2546 604.849 70.1561C604.847 70.1971 604.845 70.2342 604.843 70.2772C603.408 73.2512 602.299 75.5476 601.531 77.139C601.157 77.9025 600.868 78.4961 600.655 78.9316C600.458 79.3358 600.339 79.5545 600.339 79.5545C600.327 79.5623 600.411 79.3651 600.586 78.9687C600.779 78.5371 601.041 77.9474 601.382 77.1859C602.12 75.5534 603.187 73.1965 604.568 70.1464L604.566 70.2655C602.944 66.3523 601.569 60.7656 602.341 54.1518C603.062 47.5985 606.18 40.0318 612.465 34.0624C615.589 31.0962 619.476 28.5772 623.916 26.9037C628.348 25.2264 633.333 24.414 638.424 24.7519C643.507 25.1229 648.665 26.6421 653.3 29.3251C655.646 30.6236 657.77 32.3225 659.778 34.16C660.689 35.1676 661.738 36.0717 662.538 37.1886L663.816 38.8074L664.944 40.5414C670.925 49.85 671.378 61.5623 667.464 70.7088C665.523 75.3093 662.588 79.3124 659.115 82.4601C655.644 85.6157 651.644 87.9218 647.568 89.361C643.487 90.8079 639.337 91.384 635.461 91.3059C631.582 91.2297 627.952 90.5697 624.782 89.4371C618.391 87.2111 613.888 83.5283 610.992 80.3688L611.247 80.195L611.255 80.2106C611.295 80.2848 611.267 80.3766 611.191 80.4176C611.165 80.4313 611.133 80.4371 611.106 80.4352C607.607 80.1579 604.906 79.945 603.04 79.7986C602.17 79.7244 601.497 79.6678 601.004 79.6268C600.55 79.5838 600.327 79.5604 600.339 79.5545Z" fill="#E0E0E0"/>
<path d="M628.337 58.3329C628.337 60.4848 626.56 62.2285 624.367 62.2285C622.174 62.2285 620.396 60.4848 620.396 58.3329C620.396 56.181 622.174 54.4373 624.367 54.4373C626.56 54.4373 628.337 56.181 628.337 58.3329Z" fill="#E0E0E0"/>
<path d="M640.849 58.3329C640.849 60.4848 639.072 62.2285 636.878 62.2285C634.685 62.2285 632.908 60.4848 632.908 58.3329C632.908 56.181 634.685 54.4373 636.878 54.4373C639.072 54.4373 640.849 56.181 640.849 58.3329Z" fill="#E0E0E0"/>
<path d="M649.394 62.2285C651.587 62.2285 653.364 60.4844 653.364 58.3329C653.364 56.1814 651.587 54.4373 649.394 54.4373C647.201 54.4373 645.424 56.1814 645.424 58.3329C645.424 60.4844 647.201 62.2285 649.394 62.2285Z" fill="#E0E0E0"/>
<path d="M335.746 386.171L341.535 375.225C338.246 368.043 337.384 359.911 339.691 351.72C344.897 333.243 365.347 320.623 387.179 322.447C414.603 324.737 433.065 347.58 426.193 370.72C420.682 389.274 399.776 401.656 377.837 399.405C366.619 398.255 356.969 393.641 350.017 387.001L350.029 387.021L335.746 386.171Z" fill="white"/>
<path d="M335.533 386.229C335.533 386.229 335.875 386.231 336.502 386.258C337.171 386.287 338.084 386.328 339.262 386.381C341.71 386.5 345.247 386.674 349.828 386.899L349.629 387.16L349.617 387.141C349.563 387.053 349.603 386.943 349.704 386.899C349.79 386.859 349.893 386.879 349.955 386.938C353.818 390.558 359.766 394.764 368.135 397.277C372.288 398.56 377.031 399.292 382.09 399.355C387.142 399.421 392.542 398.734 397.843 397.049C403.141 395.375 408.327 392.706 412.827 389.07C417.325 385.444 421.122 380.841 423.629 375.561C428.684 365.056 428.079 351.641 420.324 340.971L418.863 338.983L417.205 337.128C416.168 335.845 414.807 334.812 413.627 333.656C411.022 331.551 408.272 329.598 405.231 328.108C399.222 325.029 392.534 323.277 385.936 322.838C379.329 322.44 372.855 323.358 367.09 325.267C361.315 327.171 356.248 330.051 352.164 333.447C343.953 340.284 339.823 348.973 338.814 356.536C337.738 364.169 339.457 370.648 341.513 375.219C341.511 375.268 341.509 375.311 341.505 375.36C339.605 378.844 338.134 381.534 337.117 383.399C336.621 384.294 336.237 384.989 335.957 385.498C335.69 385.973 335.533 386.229 335.533 386.229C335.517 386.237 335.628 386.006 335.859 385.541C336.114 385.036 336.464 384.344 336.912 383.454C337.891 381.542 339.304 378.781 341.135 375.208L341.131 375.346C338.982 370.761 337.159 364.218 338.182 356.47C339.135 348.793 343.268 339.93 351.599 332.936C355.74 329.462 360.891 326.509 366.776 324.551C372.648 322.586 379.256 321.635 386.004 322.03C392.739 322.465 399.577 324.244 405.72 327.388C408.831 328.909 411.645 330.901 414.306 333.053C415.516 334.232 416.903 335.291 417.965 336.599L419.659 338.495L421.154 340.526C429.08 351.43 429.681 365.151 424.493 375.866C421.92 381.253 418.031 385.944 413.43 389.63C408.829 393.327 403.529 396.029 398.126 397.715C392.717 399.41 387.216 400.085 382.08 399.993C376.937 399.905 372.129 399.13 367.926 397.802C359.456 395.196 353.488 390.882 349.651 387.18L349.989 386.977L350.001 386.996C350.055 387.084 350.017 387.191 349.915 387.238C349.882 387.254 349.838 387.26 349.802 387.258C345.165 386.934 341.587 386.684 339.111 386.51C337.959 386.424 337.067 386.358 336.414 386.309C335.811 386.264 335.517 386.237 335.533 386.229Z" fill="#E0E0E0"/>
<path d="M372.635 361.369C372.635 363.888 370.279 365.933 367.373 365.933C364.468 365.933 362.111 363.89 362.111 361.369C362.111 358.848 364.468 356.806 367.373 356.806C370.281 356.806 372.635 358.85 372.635 361.369Z" fill="#E0E0E0"/>
<path d="M389.221 361.369C389.221 363.888 386.865 365.933 383.959 365.933C381.054 365.933 378.697 363.89 378.697 361.369C378.697 358.848 381.054 356.806 383.959 356.806C386.865 356.806 389.221 358.85 389.221 361.369Z" fill="#E0E0E0"/>
<path d="M405.807 361.369C405.807 363.888 403.451 365.933 400.545 365.933C397.639 365.933 395.283 363.89 395.283 361.369C395.283 358.848 397.639 356.806 400.545 356.806C403.451 356.806 405.807 358.85 405.807 361.369Z" fill="#E0E0E0"/>
<path d="M110.178 86.6793L98.8143 90.0789C95.3854 96.7591 89.8747 102.525 82.5212 106.339C65.9336 114.945 45.0075 110.215 33.9544 95.3395C20.0694 76.6521 26.4338 50.3824 47.4076 39.828C64.2261 31.363 85.2338 36.5319 96.0341 51.7512C101.557 59.5347 103.634 68.5562 102.685 77.1852L102.693 77.1657L110.178 86.6793Z" fill="white"/>
<path d="M110.339 86.7777C110.339 86.7777 110.146 86.5609 109.809 86.1509C109.453 85.7115 108.964 85.112 108.333 84.3388C107.031 82.7258 105.151 80.3943 102.715 77.3735L103.021 77.3305L103.013 77.35C102.979 77.4398 102.876 77.4848 102.784 77.4516C102.707 77.4242 102.663 77.3461 102.671 77.27C103.148 72.5171 102.872 66.0829 99.9742 59.2133C98.5612 55.7824 96.4079 52.3339 93.582 49.1198C90.762 45.9056 87.1877 42.959 82.9329 40.7114C78.6899 38.4619 73.7743 36.9193 68.5363 36.4331C63.3063 35.939 57.7539 36.5131 52.4343 38.333C41.8131 41.9104 32.2585 50.9104 28.7937 62.6364L28.1569 64.8312L27.729 67.0593C27.3728 68.5355 27.3827 70.0528 27.1996 71.5368C27.126 74.5245 27.2474 77.5062 27.8763 80.3728C29.0166 86.1235 31.5222 91.4485 34.9452 95.8714C38.404 100.275 42.7584 103.751 47.4411 106.141C52.1258 108.543 57.127 109.872 61.953 110.255C71.6608 111.017 80.4154 108.025 86.5688 103.797C92.8118 99.5679 96.6149 94.3249 98.82 90.0973C98.8578 90.068 98.8916 90.0406 98.9294 90.0114C102.579 88.9667 105.399 88.1602 107.352 87.6017C108.293 87.3361 109.023 87.1311 109.559 86.9808C110.062 86.8441 110.339 86.7777 110.339 86.7777C110.355 86.7816 110.12 86.8617 109.646 87.014C109.129 87.178 108.42 87.4045 107.507 87.6935C105.541 88.3067 102.701 89.1951 99.0249 90.3414L99.1304 90.2535C96.9692 94.5494 93.178 99.8979 86.8793 104.235C80.6741 108.568 71.7882 111.669 61.8973 110.935C56.9817 110.567 51.8791 109.232 47.0928 106.795C42.3086 104.37 37.8527 100.833 34.3123 96.344C30.8077 91.8352 28.2385 86.4008 27.0663 80.5251C26.4215 77.5961 26.2921 74.5498 26.3697 71.4958C26.5528 69.9786 26.5469 68.4262 26.9091 66.9187L27.3469 64.636L27.9957 62.3923C31.5381 50.4086 41.3195 41.2152 52.1696 37.5871C57.6066 35.7398 63.2745 35.1677 68.608 35.6871C73.9495 36.1987 78.9506 37.7902 83.2632 40.1002C87.5858 42.4064 91.2078 45.4253 94.0576 48.7097C96.9134 51.9942 99.0727 55.511 100.48 59.0024C103.365 65.995 103.574 72.5132 103.023 77.3012L102.681 77.2192L102.689 77.1997C102.723 77.1098 102.824 77.0649 102.916 77.0981C102.947 77.1098 102.975 77.1313 102.995 77.1567C105.389 80.2752 107.238 82.6829 108.516 84.3485C109.107 85.1257 109.565 85.731 109.899 86.1704C110.205 86.5804 110.355 86.7835 110.339 86.7777Z" fill="#E0E0E0"/>
<path d="M56.5463 73.0467C56.5463 75.4856 54.5303 77.4637 52.0446 77.4637C49.559 77.4637 47.543 75.4856 47.543 73.0467C47.543 70.6077 49.559 68.6296 52.0446 68.6296C54.5323 68.6296 56.5463 70.6077 56.5463 73.0467Z" fill="#E0E0E0"/>
<path d="M66.2341 77.4637C68.7203 77.4637 70.7357 75.4861 70.7357 73.0467C70.7357 70.6072 68.7203 68.6296 66.2341 68.6296C63.7479 68.6296 61.7324 70.6072 61.7324 73.0467C61.7324 75.4861 63.7479 77.4637 66.2341 77.4637Z" fill="#E0E0E0"/>
<path d="M80.4235 77.4637C82.9097 77.4637 84.9252 75.4861 84.9252 73.0467C84.9252 70.6072 82.9097 68.6296 80.4235 68.6296C77.9373 68.6296 75.9219 70.6072 75.9219 73.0467C75.9219 75.4861 77.9373 77.4637 80.4235 77.4637Z" fill="#E0E0E0"/>
<path d="M255.004 94.6972L261.398 81.0146C257.764 72.038 256.811 61.8742 259.36 51.6362C265.112 28.5415 287.704 12.7676 311.822 15.0464C342.117 17.9091 362.514 46.4615 354.922 75.3811C348.834 98.5733 325.739 114.049 301.501 111.235C289.107 109.796 278.447 104.029 270.768 95.7321L270.78 95.7556L255.004 94.6972Z" fill="white"/>
<path d="M254.769 94.7657C254.769 94.7657 255.147 94.7696 255.84 94.8008C256.578 94.8379 257.587 94.8907 258.891 94.9551C261.593 95.1055 265.5 95.3222 270.563 95.6034L270.344 95.9314L270.33 95.908C270.272 95.7987 270.314 95.662 270.426 95.6053C270.519 95.5565 270.635 95.5819 270.702 95.6542C274.969 100.181 281.54 105.435 290.786 108.577C295.374 110.18 300.614 111.096 306.202 111.172C311.784 111.254 317.749 110.395 323.605 108.29C329.456 106.197 335.188 102.864 340.157 98.3176C345.127 93.7854 349.32 88.0328 352.09 81.4326C357.674 68.3026 357.006 51.5328 348.438 38.1978L346.824 35.7139L344.993 33.3941C343.847 31.791 342.342 30.5002 341.039 29.0533C338.161 26.421 335.122 23.9821 331.763 22.1212C325.126 18.2724 317.737 16.0815 310.449 15.5328C303.149 15.0368 295.997 16.183 289.628 18.5692C283.248 20.9496 277.652 24.5484 273.14 28.7936C264.069 37.3386 259.506 48.1995 258.393 57.6526C257.203 67.1935 259.104 75.2914 261.374 81.005C261.372 81.0655 261.369 81.1202 261.367 81.1807C259.267 85.5333 257.643 88.8978 256.519 91.2274C255.971 92.3463 255.547 93.2152 255.237 93.8518C254.944 94.4474 254.769 94.7657 254.769 94.7657C254.751 94.7754 254.875 94.4865 255.131 93.9065C255.414 93.2738 255.798 92.4107 256.296 91.2977C257.376 88.9076 258.939 85.4571 260.961 80.9913L260.957 81.1651C258.582 75.4339 256.568 67.256 257.697 57.5706C258.75 47.9769 263.317 36.8973 272.519 28.155C277.094 23.8122 282.784 20.1236 289.284 17.6749C295.772 15.2203 303.071 14.0292 310.526 14.5232C317.967 15.068 325.52 17.2921 332.306 21.221C335.741 23.121 338.85 25.6107 341.791 28.2995C343.127 29.7738 344.661 31.0978 345.833 32.7322L347.704 35.1028L349.356 37.6413C358.112 51.2711 358.777 68.4198 353.045 81.8114C350.203 88.5463 345.907 94.4083 340.822 99.0167C335.739 103.639 329.884 107.015 323.916 109.12C317.942 111.239 311.864 112.084 306.19 111.967C300.51 111.856 295.197 110.889 290.554 109.229C281.198 105.97 274.603 100.579 270.364 95.951L270.738 95.6971L270.75 95.7206C270.808 95.8299 270.766 95.9646 270.654 96.0232C270.617 96.0428 270.569 96.0506 270.529 96.0486C265.406 95.6444 261.452 95.332 258.718 95.1152C257.446 95.0078 256.459 94.9258 255.738 94.8633C255.08 94.8086 254.753 94.7754 254.769 94.7657Z" fill="#263238"/>
<path d="M295.743 63.6953C295.743 66.845 293.14 69.3992 289.93 69.3992C286.72 69.3992 284.117 66.845 284.117 63.6953C284.117 60.5456 286.72 57.9915 289.93 57.9915C293.14 57.9934 295.743 60.5456 295.743 63.6953Z" fill="#263238"/>
<path d="M314.062 63.6953C314.062 66.845 311.461 69.3992 308.249 69.3992C305.039 69.3992 302.438 66.845 302.438 63.6953C302.438 60.5456 305.039 57.9915 308.249 57.9915C311.459 57.9934 314.062 60.5456 314.062 63.6953Z" fill="#263238"/>
<path d="M332.384 63.6953C332.384 66.845 329.781 69.3992 326.571 69.3992C323.361 69.3992 320.758 66.845 320.758 63.6953C320.758 60.5456 323.361 57.9915 326.571 57.9915C329.783 57.9934 332.384 60.5456 332.384 63.6953Z" fill="#263238"/>
<path d="M192.074 105.762C111.647 105.762 46.4473 169.735 46.4473 248.651C46.4473 287.155 61.996 322.075 87.2347 347.77L71.2023 392.735C71.2023 392.735 102.385 380.896 121.325 373.542C142.275 384.993 166.39 391.54 192.072 391.54C272.499 391.54 337.699 327.566 337.699 248.651C337.699 169.736 272.503 105.762 192.074 105.762Z" fill="#E0E0E0"/>
<path d="M192.075 105.467C192.075 105.467 192.927 105.454 194.591 105.477C196.252 105.547 198.734 105.44 201.97 105.729C208.438 106.094 218.04 107.033 229.969 110.177C235.941 111.706 242.447 113.887 249.386 116.707C256.3 119.589 263.568 123.293 270.953 127.931C285.692 137.193 300.893 150.536 313.301 168.518C319.445 177.522 324.854 187.643 329.095 198.726C333.236 209.835 336.193 221.903 337.447 234.596C339.957 259.924 335.578 287.94 322.199 313.522C318.893 319.915 315.06 326.152 310.648 332.084C306.252 338.023 301.426 343.775 296.025 349.096C285.242 359.735 272.603 369.076 258.394 376.118C230.146 390.445 195.719 395.528 162.627 388.82C147.912 385.876 133.864 380.658 121.078 373.693L121.517 373.722C104.454 380.252 87.7153 386.659 71.3864 392.909L70.3595 393.302L70.7237 392.28C76.2164 376.889 81.5718 361.885 86.768 347.319L86.8794 347.815C69.7087 330.225 57.6745 309.109 51.537 287.463C45.2542 265.819 44.6511 243.838 48.1876 223.899C51.7001 203.907 59.386 185.969 69.1634 171.096C78.9647 156.206 90.6865 144.219 102.691 135.209C108.691 130.698 114.659 126.752 120.598 123.567C122.051 122.715 123.531 121.964 124.998 121.245C126.465 120.525 127.886 119.771 129.323 119.111C132.23 117.859 134.987 116.52 137.773 115.522C148.79 111.218 158.689 108.847 166.803 107.492C167.818 107.318 168.803 107.149 169.758 106.985C170.721 106.865 171.654 106.75 172.558 106.639C174.367 106.43 176.051 106.194 177.619 106.051C180.765 105.852 183.414 105.596 185.557 105.547C187.687 105.512 189.311 105.485 190.423 105.467C191.518 105.454 192.075 105.467 192.075 105.467C192.075 105.467 191.518 105.508 190.427 105.549C189.317 105.586 187.695 105.641 185.567 105.711C183.428 105.788 180.785 106.069 177.647 106.293C176.082 106.449 174.403 106.699 172.6 106.92C171.698 107.037 170.769 107.158 169.81 107.283C168.856 107.453 167.875 107.629 166.864 107.809C158.778 109.211 148.919 111.624 137.956 115.955C135.184 116.961 132.441 118.306 129.55 119.564C128.119 120.228 126.706 120.983 125.249 121.706C123.788 122.426 122.317 123.18 120.873 124.034C114.966 127.224 109.033 131.175 103.073 135.683C91.1443 144.687 79.51 156.648 69.7883 171.482C60.0925 186.299 52.4842 204.153 49.0214 224.034C45.5348 243.863 46.1636 265.712 52.4305 287.211C58.5501 308.713 70.5247 329.677 87.5919 347.14L87.8029 347.355L87.7033 347.636C82.5151 362.203 77.1677 377.211 71.6849 392.605L71.0222 391.976C87.3451 385.723 104.08 379.313 121.139 372.777L121.368 372.689L121.581 372.804C134.28 379.717 148.227 384.897 162.836 387.82C195.693 394.479 229.877 389.441 257.932 375.228C272.046 368.243 284.604 358.971 295.32 348.411C300.69 343.131 305.488 337.419 309.86 331.524C314.248 325.635 318.061 319.441 321.351 313.094C334.665 287.692 339.051 259.862 336.593 234.676C335.365 222.055 332.444 210.052 328.346 198.998C324.149 187.971 318.788 177.893 312.696 168.92C300.387 151.004 285.292 137.683 270.643 128.412C263.301 123.768 256.073 120.054 249.195 117.154C242.292 114.319 235.816 112.114 229.869 110.56C217.988 107.365 208.414 106.365 201.96 105.934C198.732 105.612 196.252 105.686 194.593 105.582C192.927 105.524 192.075 105.467 192.075 105.467Z" fill="#263238"/>
<path d="M176.35 62.8945L178.283 62.6816C197.732 60.5473 215.587 73.4254 219.321 92.2749C222.792 109.8 226.398 129.204 227.361 138.704C229.355 158.38 209.675 163.636 209.675 163.636L210.833 171.617C212.746 184.796 203.368 196.987 189.927 198.797C176.659 200.584 164.39 191.574 162.396 178.579L151.223 105.776C147.105 85.5712 155.653 66.3761 176.35 62.8945Z" fill="white"/>
<path d="M209.849 163.589C209.849 163.589 197.148 165.749 182.75 158.936C182.75 158.936 190.535 172.398 210.315 168.434L209.849 163.589Z" fill="#263238"/>
<path d="M216.017 110.886C216.24 112.362 215.149 113.764 213.583 114.02C212.019 114.276 210.568 113.29 210.347 111.813C210.124 110.337 211.215 108.933 212.777 108.677C214.343 108.421 215.794 109.41 216.017 110.886Z" fill="#263238"/>
<path d="M216.116 102.349C215.803 102.753 213.457 101.417 210.38 101.765C207.301 102.067 205.222 103.87 204.846 103.536C204.663 103.389 204.947 102.69 205.851 101.88C206.738 101.073 208.312 100.212 210.231 100.009C212.149 99.81 213.841 100.324 214.848 100.931C215.875 101.538 216.271 102.165 216.116 102.349Z" fill="#263238"/>
<path d="M188.128 114.463C188.351 115.94 187.261 117.342 185.695 117.597C184.13 117.853 182.681 116.867 182.459 115.391C182.236 113.917 183.326 112.513 184.891 112.257C186.455 111.999 187.906 112.987 188.128 114.463Z" fill="#263238"/>
<path d="M185.93 106.235C185.618 106.639 183.268 105.305 180.195 105.651C177.118 105.953 175.036 107.754 174.66 107.422C174.477 107.275 174.76 106.576 175.667 105.766C176.555 104.959 178.127 104.098 180.046 103.895C181.964 103.696 183.656 104.21 184.663 104.817C185.687 105.426 186.086 106.051 185.93 106.235Z" fill="#263238"/>
<path d="M199.664 127.402C199.63 127.232 201.505 126.697 204.56 125.966C205.336 125.8 206.062 125.566 206.136 125.025C206.257 124.447 205.833 123.653 205.35 122.797C204.399 121.012 203.402 119.142 202.357 117.181C198.175 109.177 195.055 102.559 195.385 102.397C195.716 102.235 199.372 108.591 203.553 116.595C204.564 118.572 205.533 120.454 206.452 122.256C206.85 123.1 207.475 124.037 207.207 125.238C207.061 125.838 206.532 126.32 206.042 126.507C205.555 126.714 205.115 126.771 204.729 126.837C201.628 127.345 199.694 127.57 199.664 127.402Z" fill="#263238"/>
<path d="M185.362 94.315C185.153 95.1684 182.034 95.1176 178.474 95.9416C174.894 96.6954 172.101 98.0525 171.538 97.369C171.286 97.039 171.703 96.2131 172.79 95.2875C173.867 94.3658 175.642 93.407 177.781 92.9325C179.923 92.4619 181.945 92.581 183.32 92.9618C184.707 93.3387 185.449 93.9108 185.362 94.315Z" fill="#263238"/>
<path d="M213.995 93.7335C213.532 94.4794 211.331 93.999 208.779 94.247C206.218 94.4052 204.124 95.2253 203.545 94.5614C203.289 94.2373 203.549 93.5128 204.419 92.7591C205.275 92.0112 206.769 91.3102 208.527 91.1696C210.284 91.0309 211.874 91.4859 212.841 92.0912C213.82 92.7005 214.196 93.3742 213.995 93.7335Z" fill="#263238"/>
<path d="M216.374 83.4628C216.374 83.4628 209.689 71.7387 203.313 69.5302C195.595 66.8589 193.345 75.0896 186.148 73.9414C178.954 72.7952 171.585 70.2274 165.059 76.3022C157.917 82.9512 162.036 86.6125 162.55 95.384C164.629 130.945 159.19 141.663 155.419 125.219C155.005 123.417 149.681 122.534 148.038 114.911C145.906 105.026 144.131 92.9373 145.594 85.5951C146.828 79.407 149.831 74.8963 155.538 69.6591C164.55 61.3914 178.039 59.753 187.313 59.6515C196.589 59.5519 215.453 67.9642 216.374 83.4628Z" fill="#263238"/>
<path d="M156.638 124.545C156.166 121.526 153.228 119.425 150.182 120.05C146.488 120.809 142.567 123.346 143.678 130.891C145.648 144.277 158.938 139.575 158.904 139.188C158.882 138.925 157.511 130.139 156.638 124.545Z" fill="white"/>
<path d="M155.18 134.572C155.114 134.539 154.967 134.769 154.59 135.008C154.224 135.238 153.57 135.455 152.819 135.295C151.301 134.98 149.758 132.907 149.337 130.503C149.124 129.29 149.211 128.093 149.51 127.07C149.782 126.031 150.326 125.256 151.034 125.027C151.733 124.762 152.31 125.115 152.531 125.469C152.768 125.816 152.722 126.096 152.797 126.109C152.841 126.137 153.056 125.844 152.867 125.305C152.772 125.047 152.565 124.754 152.206 124.543C151.84 124.328 151.339 124.262 150.841 124.389C149.8 124.61 148.992 125.693 148.664 126.816C148.278 127.953 148.148 129.302 148.389 130.663C148.873 133.348 150.652 135.674 152.708 135.953C153.703 136.062 154.461 135.666 154.829 135.291C155.201 134.9 155.229 134.59 155.18 134.572Z" fill="#263238"/>
<path d="M218.473 68.7232C216.278 67.2782 213.36 67.2098 211.179 65.7453C207.207 63.0799 206.686 56.5656 202.112 55.0972C199.4 54.2263 196.482 55.6303 193.632 55.4917C189.025 55.2691 187.065 51.9651 180.102 52.3166C171.056 52.7715 168.519 59.5416 168.519 59.5416C168.519 59.5416 163.397 57.1632 158.161 61.0569C154.216 63.9898 154.248 69.4476 154.248 69.4476C154.248 69.4476 152.777 68.8169 148.62 72.4118C145.975 74.6985 143.975 79.4357 143.155 82.7983C141.933 87.8089 144.403 92.8996 146.803 97.4807C148.102 99.9606 149.691 102.683 152.429 103.429C155.768 104.339 159.237 101.632 160.344 98.4082C161.45 95.1843 163.303 91.9057 164.692 88.7892C167.102 83.3821 169.598 78.3266 167.14 75.0753C170.209 73.9232 173.624 73.6596 176.798 74.5071C180.002 75.3624 182.86 77.1979 186.044 78.1176C189.23 79.0354 193.191 78.762 195.181 76.1532C196.962 79.8126 202.747 80.7265 205.609 77.7994C208.28 81.6403 214.18 83.1673 218.099 80.5527C222.015 77.938 222.407 71.3144 218.473 68.7232Z" fill="#263238"/>
<path d="M145.262 94.3884C145.384 94.322 146.001 95.5346 147.022 97.3858C147.555 98.284 148.269 99.3522 149.434 99.9907C150.598 100.633 152.158 100.616 153.714 100.246C155.273 99.8774 156.658 99.1764 157.734 98.3231C158.803 97.4619 159.623 96.4758 160.278 95.642C161.571 93.9471 162.318 92.8301 162.427 92.8985C162.509 92.9492 161.95 94.156 160.75 95.972C160.135 96.8703 159.35 97.9208 158.216 98.8913C157.08 99.8462 155.587 100.627 153.907 101.026C152.262 101.422 150.437 101.442 149.062 100.633C147.702 99.8267 147 98.6101 146.51 97.6514C145.593 95.6752 145.189 94.4352 145.262 94.3884Z" fill="#7D7D7D"/>
<path d="M146.339 104.757C146.435 104.645 147.275 105.61 149.135 106.088C150.053 106.321 151.203 106.414 152.429 106.19C153.653 105.973 154.941 105.409 156.125 104.579C158.511 102.896 159.97 100.595 160.995 98.9687C162.004 97.3129 162.617 96.2643 162.724 96.3189C162.818 96.3658 162.394 97.4945 161.502 99.246C160.595 100.959 159.164 103.421 156.602 105.235C155.331 106.125 153.918 106.723 152.556 106.922C151.197 107.125 149.945 106.957 148.97 106.633C146.982 105.954 146.264 104.78 146.339 104.757Z" fill="#7D7D7D"/>
<path d="M191.163 132.823C190.639 134.342 190.743 135.795 190.635 137.394C190.528 138.993 191.28 140.079 192.353 141.287C193.461 142.541 195.222 143.125 196.912 143.066C196.928 143.066 196.946 143.064 196.964 143.064C200.122 142.936 202.665 140.458 202.994 137.374L203.352 134.006C200.078 133.32 191.411 133.028 191.163 132.823Z" fill="white"/>
<path d="M200.142 141.928C200.12 141.866 199.738 141.967 199.051 142.098C198.368 142.227 197.359 142.403 196.151 142.272C194.953 142.151 193.56 141.608 192.507 140.436C191.461 139.302 190.844 137.576 190.858 135.779C190.86 134.787 191.071 133.83 191.445 133.006L191.031 133.237C194.143 133.528 196.862 133.75 198.806 133.873C200.75 133.996 201.919 134.024 201.929 133.926C201.939 133.828 200.79 133.621 198.86 133.358C196.931 133.092 194.223 132.77 191.114 132.436L190.824 132.405L190.7 132.666C190.259 133.604 190.02 134.676 190.016 135.773C190.004 137.761 190.698 139.671 191.938 140.954C193.154 142.244 194.792 142.805 196.1 142.854C197.427 142.914 198.458 142.635 199.134 142.407C199.817 142.176 200.159 141.973 200.142 141.928Z" fill="#263238"/>
<path d="M114.553 194.721C113.412 194.721 97.167 201.095 92.8902 216.763C88.6154 232.432 76.9295 289.796 76.9295 289.796L64.543 306.627C64.543 306.627 68.5531 337.384 91.3558 331.539C91.3558 331.539 106.572 334.146 111.416 319.009C116.262 303.872 125.667 258.723 125.667 258.723L114.553 194.721Z" fill="#2179FF"/>
<path d="M161.993 168.458L153.384 181.242L114.553 194.721L125.67 305.2L121.514 363.105C120.961 370.806 127.49 376.866 130.215 377.09H254.486C257.543 377.008 261.682 369.674 262.19 365.581C262.645 361.91 262.247 358.186 261.214 354.63L254.782 332.477C255.738 346.261 251.531 250.27 251.367 246.775L260.773 197.379L216.594 179.852L209.754 169.494L189.875 184.331L161.993 168.458Z" fill="#2179FF"/>
<path d="M260.769 197.377C260.769 197.377 269.658 205.035 271.149 210.868C272.64 216.703 304.575 284.636 304.575 284.636L320.452 288.84L324.683 297.465C329.698 307.685 326.978 320.145 317.768 327.001C317.188 327.433 316.619 327.814 316.068 328.136C307.491 333.137 292.075 332.942 283.088 322.541C274.578 312.694 249.682 277.266 249.682 277.266V233.928L260.769 197.377Z" fill="#2179FF"/>
<path d="M305.57 284.659C305.568 284.868 303.633 284.706 300.769 285.606C297.918 286.465 294.242 288.615 291.287 292.054C288.331 295.506 286.522 299.281 285.252 301.993C283.997 304.727 283.252 306.447 283.089 306.389C282.948 306.338 283.412 304.524 284.482 301.681C285.569 298.863 287.294 294.925 290.387 291.306C293.494 287.686 297.476 285.516 300.541 284.819C303.631 284.083 305.599 284.556 305.57 284.659Z" fill="#263238"/>
<path d="M84.5874 293.854L63.2473 276.471L50.9922 289.986L52.4907 296.602L79.1722 321.253C79.1722 321.253 84.9416 318.513 87.5526 311.21C90.2055 303.791 84.5874 293.854 84.5874 293.854Z" fill="white"/>
<path d="M62.9974 285.446C63.2561 285.059 66.0622 275.802 59.4689 268.793C52.8776 261.785 46.5391 258.87 42.7698 256.665C39.0006 254.46 31.5396 246.728 29.8779 248.202C28.2161 249.676 27.2927 252.07 29.0301 255.29C30.7674 258.51 39.0642 262.281 38.7697 266.415C38.5568 269.408 35.4263 269.254 35.4263 269.254C35.4263 269.254 20.8686 268.516 14.8565 267.301C8.84431 266.089 3.26601 266.591 3.33367 268.682C3.40134 270.773 4.41829 272.035 9.39557 273.025C14.3709 274.015 22.5741 274.648 22.8587 275.825C23.1433 277.004 21.382 277.53 18.4745 276.987C15.5669 276.444 1.74755 274.853 0.621147 276.286C-0.50526 277.719 -0.0554967 280.166 1.76745 280.896L4.87801 282.4C4.87801 282.4 2.68689 284.751 4.08395 286.37C5.48101 287.988 9.10302 287.885 9.10302 287.885L27.4857 289.48C27.4857 289.48 28.4032 290.685 27.7902 291.367C27.1773 292.048 12.9579 289.369 12.6693 290.898C12.3807 292.427 11.0374 293.001 15.2067 294.522C19.376 296.043 30.1605 297.285 34.1566 296.703C38.1528 296.121 54.4678 297.272 54.4678 297.272L62.9974 285.446Z" fill="white"/>
<path d="M215.491 183.005C215.601 183.13 214.088 184.579 211.659 186.92C209.229 189.262 205.897 192.517 202.371 196.252C201.628 197.047 200.902 197.826 200.199 198.578L199.732 199.08L199.312 198.551C196.579 195.112 194.217 192.054 192.565 189.836C190.914 187.617 189.974 186.237 190.09 186.147C190.203 186.059 191.351 187.278 193.164 189.371C194.977 191.464 197.453 194.432 200.223 197.844L199.336 197.816C200.038 197.055 200.765 196.268 201.509 195.463C205.059 191.701 208.508 188.516 211.095 186.317C213.682 184.12 215.39 182.888 215.491 183.005Z" fill="#263238"/>
<path d="M117.079 224.016C117.158 224.002 117.379 224.836 117.708 226.357C118.044 227.877 118.452 230.091 118.9 232.832C119.803 238.32 120.757 245.941 121.551 254.377C122.345 262.814 122.928 270.457 123.366 275.987C123.555 278.555 123.716 280.74 123.847 282.541C123.947 284.089 123.963 284.95 123.881 284.96C123.8 284.97 123.63 284.124 123.392 282.587C123.149 281.053 122.86 278.823 122.538 276.065C121.887 270.549 121.173 262.912 120.38 254.486C119.588 246.062 118.766 238.45 118.078 232.95C117.756 230.397 117.483 228.222 117.258 226.433C117.065 224.889 116.997 224.03 117.079 224.016Z" fill="#263238"/>
<path d="M252.076 220.163C252.157 220.157 252.301 221.206 252.494 223.106C252.691 225.006 252.896 227.763 253.079 231.171C253.463 237.988 253.664 247.419 253.69 257.827C253.69 268.116 253.69 277.421 253.69 284.472C253.694 287.703 253.696 290.412 253.698 292.546C253.69 294.454 253.648 295.51 253.566 295.512C253.485 295.514 253.373 294.464 253.24 292.56C253.101 290.656 252.973 287.897 252.858 284.485C252.623 277.665 252.537 268.237 252.513 257.829C252.49 247.425 252.42 238.013 252.249 231.2C252.165 227.97 252.094 225.264 252.038 223.131C251.986 221.226 251.996 220.169 252.076 220.163Z" fill="#263238"/>
<path d="M99.5562 317.853C99.3771 317.873 99.0686 315.6 98.3661 311.987C97.6457 308.398 96.4855 303.393 93.759 298.527C91.0266 293.673 87.0463 290.256 83.7825 288.596C80.5108 286.885 78.1326 286.674 78.1764 286.458C78.1843 286.389 78.7774 286.374 79.8341 286.53C80.8929 286.678 82.4054 287.077 84.1547 287.866C87.6593 289.404 91.938 292.898 94.7879 297.967C97.6218 303.028 98.6686 308.195 99.188 311.855C99.6856 315.541 99.6995 317.84 99.5562 317.853Z" fill="#263238"/>
<path d="M105.105 294.981C104.862 295.253 101.422 291.783 95.8413 289.959C90.2889 288.047 85.4051 288.727 85.3832 288.366C85.2558 288.104 90.3406 286.856 96.2234 288.865C102.126 290.808 105.368 294.85 105.105 294.981Z" fill="#263238"/>
<path d="M192.662 373.653C192.62 373.653 192.579 373.001 192.537 371.761C192.505 370.418 192.461 368.61 192.406 366.335C192.308 361.51 192.171 354.72 192.004 346.378C191.6 329.429 191.042 306.199 190.429 280.537C189.83 254.816 189.472 231.524 189.504 214.662C189.5 206.233 189.591 199.41 189.703 194.696C189.773 192.421 189.826 190.613 189.866 189.269C189.916 188.029 189.964 187.377 190.003 187.379C190.043 187.379 190.077 188.031 190.103 189.273C190.117 190.617 190.137 192.425 190.161 194.7C190.202 199.525 190.262 206.315 190.336 214.658C190.519 231.51 191.006 254.792 191.605 280.511C192.205 306.223 192.698 329.507 192.835 346.366C192.917 354.796 192.911 361.619 192.863 366.333C192.825 368.608 192.796 370.418 192.774 371.761C192.74 373.001 192.704 373.653 192.662 373.653Z" fill="#263238"/>
<path d="M83.5451 293.128C83.6366 293.007 85.2287 294.272 86.6616 297.073C87.378 298.459 88.0746 300.199 88.4805 302.241C88.8726 304.299 88.8845 306.588 88.5721 308.947C88.2437 311.3 87.6327 313.536 86.572 315.381C85.5212 317.215 84.1481 318.595 82.8366 319.505C80.1599 321.347 78.0185 321.311 78.0444 321.202C77.9827 321.001 79.9788 320.733 82.3311 318.855C83.4913 317.925 84.6993 316.59 85.6168 314.873C86.5342 313.169 87.0894 311.044 87.4019 308.795C87.7004 306.541 87.7183 304.346 87.4099 302.427C87.0875 300.494 86.4984 298.793 85.9053 297.418C84.7212 294.643 83.4177 293.245 83.5451 293.128Z" fill="#263238"/>
<path d="M232.035 270.99C232.071 271.061 231.02 271.662 229.083 272.685C227.149 273.714 224.321 275.144 220.8 276.86C213.761 280.297 203.92 284.825 192.871 289.418C181.816 294.007 171.653 297.789 164.237 300.355C160.53 301.64 157.515 302.638 155.417 303.284C153.32 303.934 152.149 304.258 152.122 304.182C152.096 304.106 153.216 303.639 155.264 302.858C157.517 302.011 160.436 300.91 163.949 299.588C171.28 296.828 181.376 292.933 192.411 288.354C203.441 283.769 213.318 279.369 220.44 276.124C223.853 274.57 226.691 273.279 228.878 272.283C230.874 271.383 231.997 270.918 232.035 270.99Z" fill="#263238"/>
<path d="M30.304 283.683C30.308 283.995 24.5545 284.29 17.4657 283.956C10.375 283.63 4.67726 282.8 4.71109 282.492C4.74492 282.167 10.4665 282.478 17.5215 282.802C24.5744 283.136 30.302 283.357 30.304 283.683Z" fill="#263238"/>
<path d="M43.3717 282.732C43.3438 282.851 42.0005 282.63 40.3786 281.281C38.7924 279.986 37.0113 277.339 37.1307 274.054C37.2023 272.447 37.6382 271.037 37.9287 269.787C38.2412 268.538 38.4004 267.433 38.3646 266.491C38.3248 264.597 37.4989 263.621 37.6481 263.513C37.7178 263.385 38.9118 264.293 39.1944 266.421C39.3497 267.45 39.2561 268.71 38.9915 270.006C38.7447 271.309 38.3685 272.683 38.3088 274.097C38.1994 276.938 39.6363 279.354 40.9537 280.687C42.2851 282.068 43.4533 282.556 43.3717 282.732Z" fill="#263238"/>
<path d="M188.684 185.048C188.831 185.114 187.826 187.616 186.081 191.605C185.627 192.632 185.145 193.718 184.64 194.862C184.063 196.043 183.681 197.244 182.827 198.633C182.415 199.299 181.428 199.996 180.395 199.791C179.412 199.615 178.755 199.049 178.108 198.641C176.791 197.754 175.436 196.842 174.046 195.907C168.488 192.146 163.495 188.69 159.913 186.139C156.332 183.589 154.163 181.947 154.255 181.816C154.346 181.685 156.683 183.089 160.384 185.468C164.086 187.846 169.155 191.197 174.713 194.956C176.098 195.897 177.45 196.817 178.761 197.709C179.424 198.16 180.027 198.613 180.576 198.701C181.107 198.803 181.565 198.529 181.941 198.016C183.249 195.678 184.339 193.159 185.322 191.267C187.263 187.362 188.537 184.981 188.684 185.048Z" fill="#263238"/>
<path d="M309.21 292.132L332.037 278.91L343.036 292.132L340.761 298.531L311.333 319.964C311.333 319.964 305.815 315.986 304.507 308.355C303.132 300.324 309.21 292.132 309.21 292.132Z" fill="white"/>
<path d="M331.651 286.249C331.44 285.835 329.752 276.319 337.132 270.113C344.511 263.908 351.152 261.734 355.158 259.977C359.164 258.219 367.491 251.393 368.967 253.047C370.444 254.703 371.075 257.185 368.967 260.184C366.86 263.183 354.784 267.69 356.468 271.492C357.158 273.05 360.955 273.32 360.955 273.32C360.955 273.32 375.503 274.251 381.617 273.734C387.73 273.216 393.213 274.355 392.897 276.423C392.58 278.491 391.42 279.629 386.361 280.043C381.3 280.457 373.079 280.146 372.657 281.285C372.235 282.423 373.921 283.146 376.874 282.939C379.826 282.732 393.74 282.732 394.69 284.284C395.639 285.835 394.901 288.215 393.002 288.732L389.734 289.871C389.734 289.871 391.631 292.456 390.051 293.905C388.469 295.354 384.884 294.837 384.884 294.837L366.436 294.319C366.436 294.319 365.381 295.411 365.909 296.157C366.436 296.905 380.878 295.87 380.984 297.422C381.089 298.972 382.355 299.697 378.032 300.732C373.71 301.767 362.852 301.767 358.951 300.732C355.051 299.697 338.712 298.972 338.712 298.972L331.651 286.249Z" fill="white"/>
<path d="M315.616 322.37C315.588 322.436 315.073 322.317 314.189 321.952C313.307 321.59 312.079 320.932 310.716 319.901C308.004 317.886 304.792 314.008 303.763 308.837C302.756 303.661 304.266 298.888 306.02 296.028C306.893 294.571 307.783 293.513 308.465 292.856C309.146 292.196 309.58 291.898 309.632 291.948C309.789 292.089 308.249 293.52 306.754 296.418C305.255 299.261 303.98 303.784 304.921 308.621C305.882 313.452 308.782 317.183 311.25 319.275C313.735 321.415 315.709 322.18 315.616 322.37Z" fill="#263238"/>
<path d="M359.415 266.524C359.554 266.657 358.559 267.594 357.294 269.235C356.675 270.068 356.084 271.107 355.837 272.412C355.56 273.714 355.578 275.245 355.351 276.911C354.901 280.351 352.746 282.931 350.951 284.194C349.11 285.493 347.687 285.694 347.659 285.575C347.584 285.395 348.857 284.921 350.428 283.558C351.97 282.214 353.783 279.834 354.185 276.749C354.4 275.204 354.412 273.622 354.776 272.177C355.114 270.715 355.901 269.527 356.641 268.721C358.167 267.112 359.326 266.434 359.415 266.524Z" fill="#263238"/>
<path d="M362.707 287.375C362.735 287.057 368.861 287.297 376.389 287.912C383.92 288.527 390.002 289.283 389.974 289.601C389.948 289.92 383.822 289.679 376.292 289.062C368.763 288.449 362.681 287.694 362.707 287.375Z" fill="#263238"/>
<path d="M129.217 377.089C129.217 377.089 155.017 392.519 194.881 391.218C234.745 389.92 254.477 377.089 254.477 377.089H129.217Z" fill="#263238"/>
<path d="M566.261 262.311C591.201 236.041 606.482 200.826 606.482 162.092C606.482 80.852 539.361 14.9932 456.564 14.9932C373.767 14.9932 306.646 80.852 306.646 162.092C306.646 243.333 373.767 309.191 456.564 309.191C482.157 309.191 506.241 302.886 527.319 291.791C545.377 298.873 584.608 313.769 584.608 313.769L566.261 262.311Z" fill="#E0E0E0"/>
<path d="M566.261 262.311C566.261 262.311 566.709 263.459 567.523 265.691C568.337 267.937 569.539 271.248 571.115 275.593C574.252 284.304 578.869 297.135 584.829 313.694L584.998 314.167L584.523 313.985C568.932 308.031 549.568 300.636 527.195 292.093L527.474 292.078C517.454 297.36 506.118 301.898 493.65 305.022C481.19 308.127 467.603 309.849 453.386 309.513C439.178 309.273 424.33 306.981 409.651 302.261C402.291 299.959 395.02 296.936 387.903 293.347C380.794 289.746 373.801 285.595 367.166 280.742C353.898 271.053 341.78 258.948 331.927 244.721C322.128 230.476 314.613 214.155 310.324 196.63C308.175 187.874 306.826 178.827 306.33 169.647C305.878 160.466 306.274 151.155 307.57 141.884C310.147 123.341 316.45 104.96 326.319 88.2623C343.782 58.4484 371.64 35.922 402.423 24.3874C433.228 12.6028 466.62 11.8608 495.801 19.6306C525.133 27.3653 550.107 43.5942 568.106 63.1877C577.066 73.0488 584.532 83.6208 590.188 94.5637C595.926 105.462 600.051 116.606 602.658 127.541C607.964 149.435 607.638 170.18 604.467 187.7C601.287 205.286 595.353 219.716 589.347 230.765C583.301 241.835 577.306 249.669 573.042 254.76C570.944 257.351 569.199 259.163 568.042 260.419C566.882 261.67 566.261 262.311 566.261 262.311C566.261 262.311 566.812 261.657 567.945 260.381C569.069 259.102 570.821 257.23 572.88 254.633C577.087 249.507 583.016 241.649 588.99 230.581C594.925 219.535 600.784 205.13 603.896 187.602C607.001 170.141 607.27 149.484 601.946 127.709C599.327 116.832 595.201 105.755 589.478 94.923C583.834 84.0484 576.393 73.5467 567.469 63.7539C549.544 44.2952 524.706 28.1952 495.554 20.5347C466.554 12.8391 433.377 13.5987 402.789 25.3169C372.221 36.7871 344.558 59.1651 327.216 88.7739C307.488 121.978 302.6 161.674 311.307 196.401C315.56 213.809 323.013 230.027 332.739 244.186C342.518 258.327 354.549 270.366 367.725 280.008C374.314 284.837 381.26 288.969 388.321 292.556C395.39 296.132 402.616 299.145 409.928 301.443C424.513 306.155 439.274 308.455 453.406 308.717C467.545 309.074 481.064 307.385 493.469 304.321C505.881 301.236 517.173 296.745 527.163 291.511L527.299 291.441L527.442 291.496C549.785 300.107 569.125 307.559 584.694 313.559L584.387 313.85C578.512 297.217 573.961 284.329 570.872 275.581C569.35 271.237 568.19 267.923 567.402 265.675C566.625 263.441 566.261 262.311 566.261 262.311Z" fill="#263238"/>
<path d="M544.446 62.3813C547.767 59.3019 550.197 54.9591 549.795 50.4932C549.391 46.0274 545.466 41.79 540.903 42.0087C542.384 37.8671 541.028 32.8994 537.639 30.0367C534.25 27.174 529.04 26.6 525.088 28.6522C525.677 26.5453 524.25 23.9755 521.774 22.5891C519.842 21.5053 512.237 21.2866 509.782 25.5182L498.615 61.1101C493.972 65.201 491.079 71.1489 490.76 77.2629C490.442 83.3787 492.701 89.5844 496.896 94.1186C494.076 97.7838 493.815 103.16 496.263 107.071C498.713 110.984 503.718 113.185 508.323 112.374C508.828 118.617 515.74 123.561 521.951 122.122C528.162 120.683 532.091 113.228 529.697 107.422C534.927 109.492 541.148 105.618 543.037 100.404C544.923 95.1906 543.413 89.3325 540.812 84.4234C545.47 83.2694 549.244 79.2292 550.012 74.5759C550.78 69.9187 548.495 64.9179 544.446 62.3813Z" fill="#263238"/>
<path d="M516.105 31.765C521.098 33.7314 521.863 37.8575 522.688 41.3118C524.466 48.7438 521.148 59.3431 516.549 65.4999C511.95 71.6568 507.17 74.623 499.412 75.1971C499.965 63.6253 500.521 52.0556 501.074 40.4838L516.105 31.765Z" fill="#7D7D7D"/>
<path d="M517.605 51.8585C521.402 47.6465 521.394 40.6344 517.587 36.4322C520.015 33.8253 519.508 29.5196 517.424 26.6413C515.342 23.7611 512.075 21.9704 508.918 20.2755C507.69 12.0917 498.858 5.80203 490.548 7.19236C486.717 0.764054 477.707 -0.807876 470.294 0.783578C468.483 1.17217 466.664 1.70916 464.813 1.57833C463.458 1.48265 462.157 1.02962 460.823 0.762103C453.496 -0.710237 445.798 3.9079 442.444 10.469C441.907 11.5176 441.449 12.6306 440.655 13.5074C439.612 14.6575 438.106 15.2726 436.8 16.1279C433.978 17.9752 432.052 21.0858 431.68 24.3937C431.363 27.2037 432.07 30.2577 430.681 32.7357C429.984 33.9776 428.818 34.9403 428.253 36.2447C426.615 40.0251 430.715 44.2762 429.624 48.2421C429.401 49.0505 428.971 49.7906 428.683 50.5795C428.094 52.1924 428.129 54.0182 428.778 55.6077C429.28 56.836 430.145 57.9881 430.132 59.31C430.122 60.3137 429.602 61.2354 429.33 62.202C428.663 64.5687 433.298 74.176 435.318 75.6229L498.434 80.4071C503.28 79.7724 507.47 75.7831 508.26 71.0497C508.391 70.2628 508.463 69.4036 509.008 68.8099C509.472 68.3042 510.178 68.107 510.809 67.8258C515.024 65.9551 515.896 60.5109 515.782 55.9729C515.766 55.3382 515.744 54.686 515.949 54.0826C516.252 53.202 516.98 52.5498 517.605 51.8585Z" fill="#263238"/>
<path d="M499.504 50.7337C500.454 39.779 494.32 26.7076 483.591 20.6015C476.827 16.7527 471.368 16.3641 467.718 15.6963C459.541 14.2005 452.611 17.7642 452.611 17.7642C449.075 18.3324 435.52 28.9395 433.994 41.3314C432.296 55.0979 430.778 71.9713 431.842 82.3753C433.982 103.295 450.02 106.847 450.02 106.847C450.024 106.815 446.119 141.12 446.119 141.12L475.529 168.259L490.427 129.281L499.504 50.7337Z" fill="white"/>
<path d="M438.82 59.6931C438.686 61.0951 439.787 62.3605 441.275 62.5226C442.76 62.6846 444.075 61.6848 444.209 60.2828C444.342 58.8827 443.242 57.6154 441.757 57.4514C440.266 57.2893 438.951 58.293 438.82 59.6931Z" fill="#263238"/>
<path d="M438.374 49.5624C438.69 49.9295 440.83 48.5549 443.745 48.7247C446.661 48.8556 448.713 50.449 449.051 50.117C449.216 49.9706 448.91 49.3262 448.018 48.6076C447.14 47.8929 445.612 47.1606 443.797 47.0649C441.98 46.9732 440.414 47.5433 439.496 48.1643C438.559 48.7872 438.219 49.3984 438.374 49.5624Z" fill="#263238"/>
<path d="M454.108 73.116C454.132 72.9539 452.337 72.5458 449.421 72.0108C448.681 71.8936 447.984 71.7081 447.889 71.2024C447.746 70.6634 448.102 69.894 448.512 69.0661C449.316 67.338 450.158 65.5258 451.039 63.6278C454.56 55.8814 457.157 49.4922 456.837 49.3575C456.518 49.2208 453.404 55.3894 449.881 63.1377C449.031 65.0494 448.217 66.8713 447.445 68.6131C447.115 69.4273 446.575 70.3412 446.89 71.4582C447.059 72.0147 447.582 72.4423 448.052 72.5966C448.522 72.7665 448.94 72.7977 449.306 72.8407C452.255 73.1629 454.088 73.2781 454.108 73.116Z" fill="#263238"/>
<path d="M450.017 106.847C450.017 106.847 464.27 108.557 478.84 101.047C478.84 101.047 470.451 115.234 449.42 112.1L450.017 106.847Z" fill="#263238"/>
<path d="M440.97 38.2308C441.418 38.9572 443.679 38.6155 446.276 38.9767C448.883 39.254 450.993 40.1327 451.604 39.5352C451.876 39.2423 451.632 38.5452 450.77 37.7915C449.92 37.0416 448.417 36.3074 446.628 36.0867C444.839 35.87 443.205 36.2176 442.2 36.7409C441.183 37.2623 440.777 37.8793 440.97 38.2308Z" fill="#263238"/>
<path d="M470.248 62.6515C470.162 64.0574 468.881 65.1432 467.382 65.0826C465.889 65.0221 464.743 63.8368 464.829 62.4328C464.914 61.0288 466.198 59.9392 467.69 59.9997C469.189 60.0603 470.333 61.2475 470.248 62.6515Z" fill="#263238"/>
<path d="M478.211 52.9367C477.843 53.2511 475.94 51.5737 473.031 51.3101C470.129 51.0055 467.852 52.2748 467.572 51.894C467.432 51.7241 467.834 51.1324 468.825 50.5564C469.805 49.9803 471.427 49.4843 473.238 49.6601C475.049 49.8397 476.507 50.6364 477.317 51.3863C478.147 52.1439 478.39 52.7981 478.211 52.9367Z" fill="#263238"/>
<path d="M479 41.7283C478.365 42.3219 476.186 41.4412 473.493 41.1581C470.809 40.791 468.47 41.1288 468.011 40.4004C467.812 40.0489 468.235 39.4338 469.292 38.9144C470.335 38.395 472.029 38.0494 473.877 38.272C475.726 38.4965 477.275 39.2327 478.148 39.9845C479.034 40.7402 479.283 41.4354 479 41.7283Z" fill="#263238"/>
<path d="M494.948 70.1888C495.042 68.6442 497.074 65.1079 498.642 64.9575C502.829 64.5572 510.288 65.3071 509.751 75.6505C509.016 89.7901 494.701 86.1502 494.695 85.7441C494.694 85.4258 494.622 75.5177 494.948 70.1888Z" fill="white"/>
<path d="M498.943 80.7767C499.008 80.7356 499.185 80.9621 499.599 81.173C500.003 81.3781 500.71 81.5441 501.474 81.3039C503.024 80.8313 504.429 78.5252 504.63 75.9789C504.734 74.694 504.523 73.454 504.111 72.4171C503.725 71.3607 503.08 70.605 502.32 70.4332C501.568 70.2223 501 70.646 500.803 71.0326C500.588 71.4193 500.666 71.7063 500.588 71.7259C500.547 71.7591 500.292 71.474 500.437 70.896C500.511 70.6167 500.698 70.2926 501.05 70.0368C501.41 69.779 501.926 69.6638 502.457 69.7458C503.566 69.8766 504.513 70.9292 504.965 72.0695C505.478 73.2177 505.747 74.6119 505.631 76.055C505.391 78.9001 503.767 81.4913 501.653 81.9776C500.626 82.1865 499.796 81.8448 499.376 81.4874C498.951 81.1203 498.893 80.8001 498.943 80.7767Z" fill="#263238"/>
<path d="M430.789 41.3472C433.806 39.7284 435.806 37.4067 435.824 34.0324C437.721 34.7061 439.824 32.3804 441.046 30.8065C442.268 29.2326 443.697 28.4848 443.727 26.5047C443.733 26.1142 443.733 25.7002 443.94 25.3663C444.264 24.841 444.959 24.7024 445.568 24.554C448.694 23.7885 451.339 21.3515 452.312 18.3366C455.321 19.8382 458.714 20.588 462.088 20.4982C463.455 22.7048 466.02 24.1458 468.653 24.1849C471.284 24.222 473.893 22.8551 475.324 20.6876C476.09 22.5056 477.893 23.7475 479.804 24.3411C481.716 24.9347 483.754 24.9718 485.758 25.0011C484.67 28.7484 486.93 33.1322 490.652 34.4913C491.155 34.6748 491.738 34.8623 491.945 35.3466C492.162 35.8523 491.858 36.4088 491.629 36.9087C490.18 40.0702 492.122 44.2704 495.502 45.28C493.04 46.9378 493.036 51.0971 495.498 52.7588C496.003 53.0986 496.664 53.5126 496.549 54.1023C496.505 54.3268 496.348 54.5124 496.196 54.6861C495.04 56.0237 493.882 57.4883 493.647 59.2262C493.412 60.9641 494.499 62.991 496.276 63.1687C495.291 63.9322 494.355 64.932 494.262 66.1602C494.168 67.3865 495.36 68.7105 496.554 68.3336C497.062 68.1735 504.316 67.1991 504.658 66.7968C509.056 61.6007 504.286 55.3091 504.282 48.5566C504.278 41.8022 502.27 35.1474 499.187 29.1096C497.894 26.577 496.401 24.1185 494.477 22.0057C492.284 19.598 489.587 17.6941 486.896 15.8312C483.388 13.4021 479.778 10.971 475.662 9.76614C467.996 7.52248 459.755 9.83252 452.31 12.705C449.478 13.7965 446.65 14.9916 444.216 16.7842C441.307 18.9302 439.086 21.8475 437.124 24.8547C434.288 29.2014 431.866 33.925 431.052 39.0255" fill="#263238"/>
<path d="M428.254 36.2409C428.254 36.2409 428.433 35.6648 429.122 34.7685C429.456 34.3155 429.92 33.7941 430.369 33.1165C430.809 32.437 431.183 31.5641 431.337 30.5233C431.514 29.4864 431.498 28.3109 431.486 27.0241C431.472 25.7412 431.462 24.3118 431.852 22.8355C432.228 21.3632 432.935 19.8557 434.015 18.4927C434.555 17.8132 435.186 17.1688 435.908 16.5947C436.626 16.0128 437.454 15.5402 438.284 15.0677C439.108 14.5893 439.944 14.0718 440.585 13.3415C441.229 12.6112 441.655 11.6914 442.111 10.762C443.027 8.88346 444.3 7.07135 445.94 5.50333C447.572 3.9353 449.52 2.54498 451.777 1.6155C452.888 1.1117 454.096 0.803168 455.322 0.539552C456.563 0.35014 457.841 0.223212 459.133 0.340374C459.777 0.37357 460.42 0.500499 461.063 0.605945C461.702 0.740682 462.329 0.912523 462.958 1.06093C464.213 1.38312 465.501 1.49442 466.806 1.28939C468.11 1.1156 469.404 0.732869 470.753 0.486829C472.096 0.205639 473.481 0.0787176 474.878 0.0181837C476.277 -0.0403974 477.69 0.0533294 479.101 0.22712C480.512 0.426296 481.913 0.76607 483.281 1.23862C485.983 2.22474 488.57 3.8982 490.246 6.35666C490.411 6.60075 490.574 6.84289 490.738 7.08307L490.513 6.97957C494.929 6.24926 499.405 7.66888 502.764 10.1644C506.149 12.6561 508.539 16.3272 509.124 20.2443L509.019 20.0959C510.71 21.0078 512.382 21.9217 513.909 23.0074C515.431 24.0892 516.81 25.3565 517.809 26.8679C518.798 28.3832 519.348 30.1269 519.385 31.8551C519.431 33.5774 518.878 35.3192 517.718 36.5513L517.72 36.3151C519.652 38.4591 520.526 41.2085 520.593 43.7646C520.661 46.3344 519.964 48.7909 518.667 50.6987C518.368 51.1927 517.978 51.6125 517.624 52.0421C517.248 52.4502 516.864 52.8291 516.555 53.245C516.245 53.659 516.028 54.114 515.958 54.6002C515.881 55.0864 515.903 55.5804 515.911 56.0706C515.943 58.0291 515.789 59.8354 515.431 61.4249C515.069 63.0105 514.51 64.3871 513.765 65.424C513.035 66.4726 512.157 67.1658 511.385 67.5857C510.613 68.0231 509.944 68.1715 509.562 68.4117C509.168 68.6304 509.023 68.8198 509.011 68.8081C509.011 68.8081 509.14 68.603 509.532 68.3648C509.912 68.1051 510.583 67.9372 511.329 67.4919C512.082 67.0623 512.927 66.3711 513.632 65.3342C514.35 64.309 514.886 62.9499 515.228 61.38C515.568 59.808 515.706 58.0174 515.66 56.0725C515.65 55.5882 515.62 55.0786 515.702 54.5592C515.773 54.0339 516.014 53.5223 516.337 53.0868C516.659 52.6475 517.049 52.2589 517.415 51.8547C517.757 51.4329 518.134 51.0228 518.422 50.5405C519.674 48.6776 520.343 46.2777 520.265 43.7724C520.189 41.2788 519.326 38.6114 517.451 36.5474L517.342 36.4283L517.451 36.3111C518.536 35.1512 519.055 33.509 519.007 31.8609C518.965 30.207 518.432 28.5257 517.479 27.0749C516.512 25.622 515.168 24.3879 513.67 23.3276C512.167 22.2634 510.511 21.3593 508.818 20.4513L508.728 20.4025L508.712 20.3029C508.139 16.5049 505.809 12.9295 502.503 10.5003C499.222 8.06528 494.859 6.69057 490.582 7.3994L490.443 7.42284L490.357 7.29787C490.2 7.0655 490.041 6.83117 489.882 6.59684C488.266 4.22431 485.766 2.59966 483.125 1.63502C481.79 1.17418 480.421 0.838319 479.036 0.643049C477.651 0.471211 476.262 0.379429 474.886 0.434105C473.513 0.492686 472.15 0.617661 470.828 0.89104C469.501 1.13122 468.2 1.51395 466.856 1.69165C466.186 1.78343 465.505 1.82248 464.828 1.77756C464.152 1.73265 463.493 1.59987 462.856 1.44756C462.217 1.29525 461.592 1.12537 460.969 0.992584C460.343 0.891044 459.722 0.766065 459.093 0.730917C457.839 0.613754 456.593 0.736777 455.383 0.916426C454.187 1.17223 453.007 1.46904 451.918 1.95917C449.709 2.86132 447.791 4.2204 446.185 5.75328C444.569 7.2881 443.313 9.06116 442.404 10.9045C441.946 11.8262 441.506 12.7752 440.82 13.5485C440.131 14.3237 439.261 14.849 438.431 15.3274C437.592 15.7999 436.786 16.2569 436.083 16.8193C435.377 17.3738 434.756 17.9987 434.224 18.6606C433.162 19.9865 432.459 21.4569 432.079 22.8941C431.685 24.3352 431.681 25.7392 431.683 27.0221C431.685 28.307 431.689 29.4962 431.494 30.5507C431.325 31.6071 430.929 32.5014 430.469 33.1868C429.999 33.8683 429.526 34.3799 429.183 34.8212C428.833 35.2567 428.6 35.614 428.457 35.862C428.322 36.11 428.264 36.2467 428.254 36.2409Z" fill="#7D7D7D"/>
<path d="M483.973 3.68534C483.949 3.71659 483.605 3.44907 482.926 3.07025C482.248 2.69728 481.211 2.22082 479.842 1.98649C478.484 1.74436 476.781 1.75607 475.065 2.38289C473.364 3.00385 471.668 4.2243 470.522 5.95634C470.192 6.45428 469.903 6.98737 469.708 7.51264C469.519 8.03597 469.461 8.60226 469.722 9.00842L470.044 9.51027L469.473 9.31499C467.903 8.778 466.241 8.97913 464.987 9.57275C463.714 10.1625 462.87 11.1447 462.384 12.0429C461.893 12.9509 461.738 13.7769 461.678 14.3374C461.624 14.9017 461.65 15.2161 461.616 15.218C461.602 15.22 461.586 15.1419 461.564 14.9935C461.541 14.8431 461.525 14.6205 461.531 14.3295C461.544 13.7535 461.662 12.8884 462.142 11.9219C462.611 10.9689 463.479 9.9008 464.826 9.2486C466.148 8.59639 467.913 8.35426 469.612 8.9225L469.364 9.22907C468.997 8.65303 469.099 7.94614 469.3 7.37595C469.515 6.7921 469.809 6.25315 470.158 5.72397C471.362 3.90795 473.141 2.6426 474.928 2.01383C476.731 1.3792 478.506 1.40263 479.899 1.68968C481.306 1.97282 482.351 2.50396 483.014 2.92769C483.346 3.14249 483.593 3.3241 483.746 3.46274C483.905 3.59748 483.983 3.67363 483.973 3.68534Z" fill="#7D7D7D"/>
<path d="M506.349 21.2908C506.365 21.3103 506.184 21.488 505.816 21.7653C505.445 22.0406 504.886 22.4253 504.118 22.7787C503.352 23.1263 502.357 23.4563 501.193 23.4544C500.048 23.4544 498.709 23.1185 497.682 22.1812L498.004 22.1519C497.855 22.3335 497.702 22.519 497.547 22.7065C497.382 22.8861 497.198 23.056 497.021 23.2337C495.895 24.2472 494.562 24.9052 493.288 25.2177C492.014 25.5438 490.81 25.5711 489.831 25.4364C488.846 25.3016 488.092 25.0185 487.592 24.7939C487.103 24.544 486.852 24.378 486.866 24.3546C486.902 24.2687 487.95 24.9404 489.867 25.1357C490.816 25.2274 491.97 25.1689 493.184 24.8369C494.398 24.5186 495.66 23.8781 496.727 22.9213C496.894 22.7534 497.067 22.5932 497.224 22.4234C497.372 22.2457 497.517 22.0719 497.658 21.902L497.811 21.7165L497.981 21.8727C498.896 22.7202 500.126 23.0541 501.201 23.0775C502.287 23.1048 503.248 22.8237 504.005 22.519C505.517 21.8805 506.307 21.2283 506.349 21.2908Z" fill="#7D7D7D"/>
<path d="M513.157 34.8486C513.17 34.8525 513.155 34.9404 513.105 35.1063C513.045 35.2665 512.948 35.5086 512.743 35.7703C512.355 36.3033 511.527 36.9302 510.329 37.1469C509.125 37.3793 507.672 37.059 506.241 36.4654C505.524 36.1647 504.778 35.862 504.022 35.45C503.288 35.0399 502.494 34.4659 502.143 33.5539C502.117 33.4739 502.092 33.3938 502.068 33.3216L502.402 33.4426C500.949 34.4248 499.463 35.2645 497.976 35.7058C496.497 36.1686 495.039 36.1686 493.906 35.8757C492.764 35.5945 491.944 35.0634 491.482 34.6162C491.245 34.3975 491.086 34.2022 490.993 34.0616C490.897 33.923 490.855 33.8468 490.867 33.8371C490.899 33.8137 491.108 34.0987 491.594 34.4912C492.073 34.8857 492.877 35.3504 493.976 35.5828C495.07 35.8249 496.44 35.7956 497.857 35.3309C499.279 34.8857 500.718 34.0616 502.155 33.0892L502.396 32.9271L502.49 33.2122C502.509 33.2728 502.531 33.3391 502.553 33.4055C502.84 34.1612 503.534 34.6904 504.237 35.0868C504.947 35.4813 505.702 35.7976 506.4 36.1022C507.795 36.7037 509.16 37.0278 510.281 36.8482C511.407 36.6822 512.207 36.1354 512.613 35.6648C513.031 35.1942 513.113 34.831 513.157 34.8486Z" fill="#7D7D7D"/>
<path d="M466.534 76.8274C463.539 77.4933 459.551 78.784 456.888 80.2349C456.63 81.6779 459.052 84.8686 460.421 85.4505C461.792 86.0324 463.874 85.802 465.074 84.9311C466.274 84.0602 467.022 82.5312 467.289 81.0901C467.555 79.6471 466.956 78.2333 466.534 76.8274Z" fill="white"/>
<path d="M460.83 85.6342C460.836 85.48 462.195 85.8373 464.064 85.0289C464.969 84.6227 465.974 83.9041 466.607 82.7911C467.254 81.6976 467.481 80.2116 467.121 78.788C466.947 78.1397 466.663 77.5403 466.293 77.0306L466.772 77.1771C461.638 78.8681 457.707 80.0085 457.64 79.8132C457.57 79.616 461.387 78.1495 466.498 76.3882L466.792 76.2866L466.979 76.5346C467.425 77.1263 467.761 77.8273 467.96 78.5791C468.376 80.2252 468.088 81.9319 467.296 83.1855C466.512 84.4587 465.325 85.2085 464.297 85.5815C462.157 86.3216 460.772 85.6967 460.83 85.6342Z" fill="#263238"/>
<path d="M497.691 91.1035C500.241 91.1035 502.308 89.0752 502.308 86.5732C502.308 84.0712 500.241 82.043 497.691 82.043C495.141 82.043 493.074 84.0712 493.074 86.5732C493.074 89.0752 495.141 91.1035 497.691 91.1035Z" fill="#7D7D7D"/>
<path d="M330.943 182.76C330.943 182.76 320.678 170.721 318.075 166.443C315.472 162.164 313.786 160.589 309.884 157.738C305.979 154.887 295.264 148.134 291.515 148.736C288.647 149.197 277.801 145.305 272.911 144.149C271.409 143.793 270.565 145.043 270.565 145.043C269.707 147.724 274.328 151.346 277.787 152.704L282.297 154.475L284.794 165.035C284.794 165.035 281.945 177.239 284.689 179.821C287.435 182.402 287.043 181.799 290.852 182.842C294.661 183.884 308.835 184.097 309.058 184.482C309.283 184.867 317.84 196.848 317.84 196.848L330.943 182.76Z" fill="white"/>
<path d="M263.498 145.016C263.498 145.016 266.469 143.744 269.024 147.636C271.579 151.528 273.088 154.555 273.088 154.555C273.396 154.705 275.918 155.037 275.918 155.037L279.856 159.985L278.873 163.275C278.873 163.275 271.183 162.223 269.645 160.112C268.107 157.999 263.38 148.558 263.109 146.972C262.841 145.385 263.498 145.016 263.498 145.016Z" fill="white"/>
<path d="M290.121 173.699L288.481 171.026L291.002 168.188C291.002 168.188 296.385 169.997 298.322 167.552C300.258 165.107 299.673 164.896 299.673 164.896L292.598 162.787L296.873 161.789C296.873 161.789 302.686 163.809 303.854 160.458L303.552 158.464C303.552 158.464 298.095 156.96 295.542 156.841C292.988 156.722 285.06 157.812 285.06 157.812L292.318 155.635C292.318 155.635 294.933 155.978 296.98 155.293C298.25 154.867 298.768 153.373 298.085 152.241C297.844 151.842 297.484 151.536 297.046 151.362C295.82 150.874 293.213 149.946 291.237 149.901C288.654 149.843 280.072 151.296 277.953 153.198C275.831 155.099 275.533 155.99 276.251 158.2C276.972 160.411 279.587 164.182 279.587 164.182C279.587 164.182 279.651 167.23 280.974 169.009C280.974 169.009 279.704 174.072 284.688 179.821" fill="white"/>
<path d="M284.688 179.819C284.67 179.834 284.479 179.637 284.129 179.239C283.773 178.846 283.285 178.227 282.738 177.366C282.181 176.513 281.599 175.384 281.148 173.978C280.736 172.567 280.388 170.877 280.724 168.946L280.766 169.157C279.804 167.825 279.404 166.066 279.285 164.186L279.337 164.348C278.575 163.244 277.812 162.071 277.092 160.792C276.395 159.507 275.627 158.128 275.544 156.4C275.524 155.504 276.015 154.649 276.582 154.035C277.152 153.416 277.741 152.795 278.559 152.338C280.129 151.495 281.842 151.03 283.606 150.597C285.373 150.179 287.202 149.845 289.1 149.624C290.044 149.529 291.035 149.419 292.054 149.544C293.053 149.663 294.02 149.903 294.977 150.189C295.455 150.333 295.93 150.491 296.404 150.663C296.852 150.849 297.373 150.958 297.875 151.354C298.836 152.094 299.113 153.539 298.482 154.588C298.187 155.115 297.662 155.531 297.081 155.713C296.559 155.885 296.024 155.99 295.491 156.056C294.416 156.185 293.355 156.181 292.261 156.064L292.448 156.049C291.51 156.33 290.503 156.632 289.49 156.935C288.044 157.369 286.607 157.798 285.19 158.224L285.001 157.382C288.28 156.961 291.468 156.547 294.643 156.418C296.283 156.359 297.827 156.711 299.312 157.007C300.802 157.33 302.247 157.689 303.664 158.077L303.921 158.148L303.958 158.406C304.058 159.081 304.157 159.743 304.253 160.399L304.267 160.497L304.235 160.585C303.974 161.305 303.425 161.936 302.748 162.274C302.076 162.618 301.349 162.75 300.661 162.764C299.272 162.793 297.984 162.534 296.746 162.133L296.957 162.145C295.481 162.483 294.056 162.807 292.678 163.123L292.698 162.453C294.545 163.016 296.304 163.551 297.974 164.061C298.39 164.187 298.8 164.312 299.206 164.435L299.509 164.527L299.66 164.572L299.735 164.596L299.777 164.609C299.891 164.66 299.893 164.68 299.93 164.715C300.205 165.22 299.976 165.377 299.938 165.609C299.578 166.419 299.079 167.031 298.609 167.64C298.102 168.296 297.345 168.702 296.623 168.876C295.893 169.061 295.178 169.089 294.507 169.063C293.162 168.983 291.978 168.714 290.937 168.374L291.152 168.317C290.135 169.423 289.283 170.348 288.581 171.112L288.595 170.959C289.096 171.828 289.48 172.496 289.777 173.012C290.028 173.463 290.139 173.689 290.119 173.701C290.099 173.713 289.948 173.512 289.659 173.082C289.335 172.584 288.913 171.938 288.366 171.096L288.314 171.018L288.38 170.944C289.054 170.157 289.872 169.202 290.85 168.064L290.931 167.968L291.064 168.007C292.068 168.304 293.246 168.54 294.525 168.589C295.767 168.606 297.3 168.44 298.157 167.304C298.603 166.712 299.087 166.074 299.371 165.398C299.403 165.316 299.429 165.234 299.441 165.166C299.457 165.074 299.393 165.111 299.606 165.01L299.628 164.986L299.64 164.969C299.749 164.787 299.493 165.201 299.534 165.168L299.57 165.183L299.538 165.174L299.463 165.152L299.312 165.109L299.009 165.021C298.603 164.904 298.193 164.783 297.775 164.662C296.105 164.174 294.342 163.66 292.493 163.121L291.24 162.756L292.515 162.452C293.89 162.123 295.311 161.786 296.784 161.434L296.886 161.411L296.997 161.446C298.131 161.803 299.395 162.043 300.631 162.002C301.869 161.985 303.091 161.469 303.471 160.333L303.453 160.518C303.351 159.862 303.25 159.202 303.146 158.527L303.441 158.855C302.044 158.482 300.601 158.13 299.132 157.82C297.66 157.533 296.161 157.203 294.663 157.267C291.584 157.402 288.372 157.822 285.122 158.243L284.933 157.402C286.35 156.976 287.785 156.547 289.232 156.111C290.245 155.808 291.252 155.506 292.189 155.225L292.276 155.199L292.378 155.211C293.365 155.318 294.402 155.326 295.381 155.207C295.873 155.146 296.352 155.051 296.804 154.902C297.202 154.777 297.524 154.52 297.725 154.17C298.145 153.477 297.964 152.51 297.327 152.018C297.051 151.776 296.569 151.647 296.105 151.462C295.648 151.294 295.186 151.138 294.724 150.997C293.801 150.718 292.872 150.485 291.954 150.372C291.051 150.255 290.125 150.351 289.194 150.44C287.339 150.645 285.528 150.968 283.793 151.366C282.069 151.774 280.364 152.239 278.939 152.993C278.264 153.348 277.675 153.946 277.144 154.516C276.614 155.092 276.258 155.721 276.262 156.414C276.306 157.841 277.006 159.241 277.679 160.487C278.368 161.749 279.11 162.926 279.842 164.02L279.89 164.092L279.894 164.182C279.974 165.953 280.352 167.677 281.186 168.866L281.251 168.96L281.227 169.077C280.887 170.821 281.168 172.514 281.536 173.877C281.936 175.253 282.467 176.376 282.979 177.237C283.996 178.96 284.752 179.77 284.688 179.819Z" fill="white"/>
<path d="M292.188 174.947C292.127 174.863 293.034 174.057 294.724 173.051C296.408 172.045 298.909 170.903 301.841 170.173C304.776 169.45 307.53 169.294 309.499 169.395C311.471 169.495 312.661 169.784 312.645 169.886C312.631 170.165 307.775 169.563 302.055 171.012C296.32 172.399 292.334 175.187 292.188 174.947Z" fill="#263238"/>
<path d="M293.21 162.77C293.16 162.916 292.338 162.653 291.019 162.59C289.701 162.538 287.898 162.922 286.252 164.084C284.608 165.236 283.367 166.638 282.445 167.622C281.528 168.618 280.927 169.222 280.829 169.145C280.736 169.073 281.158 168.343 281.96 167.236C282.77 166.142 283.966 164.623 285.749 163.371C287.532 162.098 289.667 161.743 291.074 161.977C292.495 162.213 293.244 162.694 293.21 162.77Z" fill="#263238"/>
<path d="M285.376 157.742C285.414 157.97 283.499 158.464 281.943 160.261C280.347 161.985 279.611 163.814 279.364 163.727C279.145 163.688 279.535 161.586 281.288 159.677C282.154 158.734 283.187 158.099 284.003 157.845C284.823 157.583 285.364 157.638 285.376 157.742Z" fill="#263238"/>
<path d="M525.702 139.611C525.702 139.611 539.748 143.274 540.17 161.423C540.542 177.48 548.172 222.609 548.381 238.902C548.592 255.195 546.697 267.47 525.666 270.938C508.682 273.738 490.68 236.289 490.68 236.289L507.964 221.595L500.758 192.152C500.758 192.152 495.967 182.047 507.319 160.804C518.669 139.562 525.702 139.611 525.702 139.611Z" fill="#2179FF"/>
<path d="M447.554 111.746L439.432 122.267L413.598 127.717C413.598 127.717 394.581 167.41 395.466 185.66C396.352 203.908 398.362 212.968 398.362 212.968L398.195 233.856C398.195 233.856 390.173 251.235 393.741 258.767C397.309 266.298 407.345 273.25 407.345 273.25L501.104 274.408C501.104 274.408 507.783 278.173 511.293 268.325C514.802 258.476 509.221 186.642 509.221 186.642L527.497 140.433L497.928 124.612L492.52 110.609L457.14 119.463L447.554 111.746Z" fill="#2179FF"/>
<path d="M514.788 225.975L510.885 220.355L490.68 228.932L492.574 235.352C492.574 235.352 499.462 242.956 506.264 240.421C513.067 237.887 514.269 230.369 514.269 230.369L514.788 225.975Z" fill="white"/>
<path d="M497.307 210.938C497.307 210.938 500.131 207.296 502.241 206.491C504.35 205.687 505.288 205.456 505.288 205.456C505.288 205.456 504.233 201.66 508.217 201.317C508.217 201.317 509.741 202.582 511.031 202.582C512.321 202.582 513.258 202.928 513.61 204.421C513.962 205.917 514.9 210.057 513.61 212.012C512.321 213.966 509.976 215.923 511.031 221.213C511.031 221.213 509.624 227.079 506.577 228.572C503.53 230.068 502.006 229.953 502.006 229.953C502.006 229.953 499.194 233.288 496.849 232.827C494.505 232.367 493.45 232.253 493.45 232.253C493.45 232.253 491.576 235.1 487.472 232.872C487.472 232.872 485.257 234.423 482.901 233.173C481.804 232.591 476.455 227.307 476.22 223.283C475.985 219.258 476.146 216.489 477.157 215.001C478.662 212.789 480.847 214.792 480.847 214.792C480.847 214.792 481.376 210.975 482.901 209.481C484.425 207.985 485.597 208.216 485.597 208.216C485.597 208.216 485.128 203.615 488.762 203.269C492.396 202.924 492.043 207.181 492.161 209.479C492.278 211.779 492.278 211.779 492.278 211.779C492.278 211.779 493.737 208.405 497.307 210.938Z" fill="white"/>
<path d="M497.305 210.938C497.319 211.006 496.846 210.633 495.918 210.299C495.455 210.141 494.822 210.03 494.147 210.238C493.484 210.453 492.826 211.043 492.446 211.853L492.137 212.511L492.095 211.793C492.038 210.809 491.944 209.713 491.904 208.495C491.842 207.304 491.833 205.935 491.234 204.734C490.706 203.453 488.879 203.244 487.572 203.937C486.238 204.664 485.814 206.522 485.93 208.186L485.956 208.559L485.53 208.542C484.467 208.499 483.114 209.469 482.503 210.623C481.84 211.853 481.462 213.349 481.221 214.847L481.114 215.519L480.588 215.068C479.866 214.449 478.757 214.05 478.025 214.64C477.263 215.224 476.903 216.327 476.73 217.419C476.55 218.528 476.527 219.699 476.54 220.887C476.588 222.066 476.55 223.329 476.853 224.421C477.524 226.688 479.08 228.787 480.801 230.685C481.239 231.16 481.697 231.621 482.174 232.058C482.415 232.273 482.66 232.48 482.907 232.665C483.114 232.81 483.412 232.952 483.695 233.04C484.827 233.442 486.197 233.163 487.217 232.521L487.456 232.37L487.687 232.493C488.778 233.079 490.117 233.499 491.343 233.165C492.034 232.995 492.692 232.534 493.08 232.019L493.257 231.783L493.5 231.824C494.316 231.962 495.128 232.099 495.936 232.236C496.322 232.294 496.782 232.394 497.104 232.419C497.427 232.47 497.775 232.396 498.113 232.304C499.481 231.841 500.695 230.763 501.672 229.68L501.807 229.529L502.04 229.525C503.053 229.508 504.239 229.121 505.272 228.697C506.37 228.258 507.268 227.776 507.935 226.895C509.29 225.212 510.086 223.109 510.635 221.119L510.631 221.287C510.134 218.93 510.297 216.352 511.531 214.349C512.098 213.349 512.87 212.5 513.384 211.656C513.847 210.828 513.919 209.782 513.907 208.807C513.891 207.819 513.752 206.847 513.583 205.907C513.374 204.98 513.3 203.966 512.769 203.425C512.506 203.152 512.138 202.998 511.73 202.935C511.346 202.853 510.872 202.93 510.374 202.793C509.439 202.543 508.709 202.057 508.032 201.529L508.241 201.594C507.178 201.678 506.213 202.098 505.773 202.887C505.339 203.666 505.339 204.617 505.509 205.396L505.554 205.605L505.341 205.675C504.593 205.921 503.883 206.153 503.212 206.372C502.529 206.585 501.924 206.776 501.431 207.118C500.42 207.772 499.68 208.508 499.081 209.086C498.49 209.678 498.058 210.151 497.767 210.469C497.477 210.785 497.319 210.955 497.305 210.938C497.291 210.922 497.405 210.738 497.668 210.393C497.93 210.049 498.332 209.547 498.901 208.924C499.481 208.313 500.197 207.544 501.232 206.829C501.747 206.45 502.412 206.218 503.077 205.993C503.755 205.755 504.472 205.503 505.23 205.236L505.063 205.515C504.854 204.628 504.816 203.615 505.32 202.641C505.843 201.652 507.037 201.133 508.191 201.035L508.303 201.026L508.4 201.1C509.009 201.567 509.744 202.022 510.518 202.211C511.176 202.352 512.438 202.139 513.232 202.986C513.62 203.379 513.817 203.886 513.937 204.373C514.048 204.833 514.156 205.304 514.249 205.786C514.434 206.749 514.59 207.749 514.617 208.793C514.631 209.828 514.6 210.949 514.03 212.012C513.437 212.994 512.719 213.779 512.197 214.722C511.087 216.563 510.948 218.873 511.427 221.137L511.445 221.224L511.423 221.304C510.848 223.413 510.074 225.544 508.585 227.424C508.209 227.887 507.763 228.319 507.236 228.668C506.679 229.029 506.159 229.229 505.602 229.478C504.472 229.924 503.369 230.351 501.968 230.381L502.336 230.228C501.254 231.416 500.054 232.54 498.372 233.13C497.944 233.249 497.485 233.347 497.005 233.28C496.525 233.23 496.193 233.153 495.779 233.089C494.989 232.956 494.195 232.822 493.397 232.687L493.817 232.492C493.244 233.259 492.471 233.759 491.574 234.003C490 234.421 488.443 233.888 487.255 233.253L487.725 233.228C486.443 234.036 484.859 234.345 483.41 233.856C483.05 233.737 482.73 233.595 482.385 233.359C482.097 233.142 481.834 232.915 481.579 232.689C481.078 232.228 480.606 231.749 480.155 231.257C478.383 229.281 476.779 227.151 476.037 224.636C475.695 223.325 475.762 222.109 475.715 220.896C475.705 219.682 475.734 218.479 475.934 217.29C476.142 216.128 476.487 214.859 477.557 214.023C478.099 213.621 478.869 213.484 479.488 213.662C480.123 213.82 480.63 214.124 481.104 214.525L480.471 214.745C480.744 213.158 481.13 211.648 481.876 210.281C482.252 209.592 482.825 209 483.444 208.583C484.085 208.163 484.772 207.809 485.661 207.895L485.263 208.251C485.205 207.29 485.303 206.382 485.601 205.513C485.878 204.65 486.469 203.853 487.275 203.42C488.083 202.992 488.971 202.904 489.807 203.041C490.666 203.172 491.387 203.797 491.705 204.492C492.362 205.892 492.312 207.276 492.356 208.481C492.37 209.686 492.434 210.791 492.463 211.773L492.113 211.713C492.569 210.805 493.307 210.197 494.069 209.975C494.838 209.77 495.516 209.932 495.988 210.123C496.947 210.533 497.264 210.926 497.305 210.938Z" fill="#FAFAFA"/>
<path d="M509.661 209.953C509.649 210.064 509.231 210.146 508.579 209.998C507.932 209.856 507.054 209.434 506.368 208.657C505.679 207.879 505.376 206.969 505.323 206.321C505.263 205.665 505.404 205.271 505.518 205.274C505.767 205.265 505.874 206.796 507.034 208.088C508.175 209.395 509.705 209.711 509.661 209.953Z" fill="#263238"/>
<path d="M504.386 221.595C504.135 221.683 503.077 218.986 501.144 216.03C499.236 213.054 497.114 211.06 497.287 210.869C497.421 210.688 499.898 212.468 501.888 215.563C503.894 218.637 504.601 221.541 504.386 221.595Z" fill="#263238"/>
<path d="M492.373 210.869C492.516 210.893 492.293 211.976 492.671 213.646C493.012 215.333 494.1 217.454 495.483 219.773C496.154 220.947 496.765 222.109 497.175 223.236C497.611 224.364 497.732 225.452 497.963 226.247C498.391 227.922 499.523 228.352 499.468 228.445C499.458 228.492 499.141 228.498 498.684 228.209C498.228 227.93 497.692 227.313 497.372 226.44C497.038 225.567 496.865 224.556 496.417 223.519C495.989 222.468 495.382 221.361 494.715 220.195C493.342 217.895 492.253 215.573 492.058 213.749C491.818 211.927 492.285 210.832 492.373 210.869Z" fill="#263238"/>
<path d="M490.441 226.579C490.369 226.651 489.412 226.012 488.085 224.679C487.436 224.003 486.698 223.115 486.188 221.935C485.667 220.752 485.504 219.365 485.374 217.981C484.833 212.371 485.472 207.823 485.699 207.852C485.957 207.87 485.72 212.382 486.254 217.901C486.383 219.283 486.519 220.576 486.944 221.638C487.358 222.706 487.991 223.577 488.558 224.276C489.717 225.665 490.541 226.481 490.441 226.579Z" fill="#263238"/>
<path d="M483.918 227.649C483.797 227.69 483.413 226.979 482.487 226.014C482.04 225.518 481.46 224.944 480.923 224.169C480.372 223.398 479.998 222.355 479.91 221.283C479.743 219.115 480.294 217.296 480.465 215.995C480.686 214.691 480.676 213.87 480.804 213.855C480.917 213.835 481.154 214.681 481.086 216.054C481.062 217.422 480.631 219.262 480.79 221.203C480.883 223.179 482.169 224.517 482.975 225.632C483.811 226.739 484.034 227.618 483.918 227.649Z" fill="#263238"/>
<path d="M539.57 240.812C539.422 240.884 538.893 239.219 536.893 237.416C535.904 236.522 534.571 235.618 532.963 234.858C531.355 234.093 529.466 233.483 527.46 232.888C525.45 232.292 523.509 231.73 521.8 231.023C520.09 230.324 518.628 229.49 517.519 228.635C516.411 227.778 515.652 226.922 515.215 226.284C514.775 225.643 514.622 225.241 514.665 225.216C514.793 225.124 515.652 226.626 517.889 228.143C518.998 228.898 520.431 229.644 522.104 230.283C523.776 230.927 525.697 231.46 527.717 232.058C529.737 232.657 531.667 233.302 533.325 234.141C534.982 234.975 536.346 235.977 537.331 236.977C538.314 237.979 538.919 238.953 539.233 239.66C539.548 240.371 539.615 240.796 539.57 240.812Z" fill="#263238"/>
<path d="M324.841 171.276L331.422 177.503C331.422 177.503 334.312 177.698 339.753 179.249C345.194 180.799 356.599 194.927 356.599 194.927L385.687 152.784C385.687 152.784 399.98 129.176 413.6 127.717L402.772 194.234C402.772 194.234 373.848 231.736 359.905 236.438C345.96 241.138 315.876 204.372 314.608 197.688L305.754 187.23L324.841 171.276Z" fill="#2179FF"/>
<path d="M521.36 271.66C521.336 271.715 520.695 271.495 519.549 271.043C518.416 270.567 516.812 269.78 514.948 268.612C511.206 266.289 506.645 262.196 502.458 257.035C500.346 254.467 498.477 251.921 496.812 249.585C495.184 247.24 493.574 245.186 492.692 243.133C491.785 241.093 491.805 239.185 492.157 238.004C492.322 237.404 492.553 236.975 492.734 236.705C492.915 236.434 493.038 236.315 493.06 236.33C493.136 236.371 492.716 236.926 492.491 238.08C492.262 239.22 492.336 240.985 493.263 242.885C494.159 244.791 495.805 246.801 497.474 249.124C499.172 251.428 501.051 253.948 503.144 256.492C507.296 261.608 511.702 265.689 515.294 268.105C518.874 270.545 521.433 271.502 521.36 271.66Z" fill="#263238"/>
<path d="M504.376 178.503C504.632 178.515 504.525 183.699 504.801 190.077C505.062 196.456 505.604 201.613 505.349 201.647C505.231 201.66 504.945 200.387 504.646 198.304C504.348 196.22 504.055 193.322 503.918 190.112C503.785 186.902 503.832 183.992 503.956 181.891C504.079 179.79 504.258 178.497 504.376 178.503Z" fill="#263238"/>
<path d="M525.507 141.571C525.525 141.773 523.424 141.665 520.438 142.897C517.435 144.069 513.867 146.93 511.031 150.921C508.167 154.904 506.482 159.064 505.55 162.122C504.619 165.191 504.4 167.183 504.243 167.166C504.181 167.16 504.193 166.66 504.267 165.752C504.291 165.295 504.364 164.744 504.49 164.11C504.601 163.473 504.722 162.745 504.947 161.96C505.739 158.808 507.367 154.514 510.311 150.421C511.797 148.4 513.415 146.598 515.147 145.233C516.882 143.891 518.609 142.848 520.208 142.327C520.604 142.188 520.972 142.036 521.334 141.935C521.694 141.862 522.042 141.79 522.381 141.722C523.03 141.571 523.593 141.495 524.066 141.513C525 141.495 525.507 141.513 525.507 141.571Z" fill="#263238"/>
<path d="M409.833 141.571C409.859 141.585 409.762 141.837 409.551 142.3C409.286 142.85 408.97 143.512 408.59 144.307C408.154 145.17 407.634 146.231 407.093 147.49C406.544 148.746 405.859 150.15 405.252 151.763C403.927 154.944 402.573 158.818 401.3 163.182C400.084 167.562 398.977 172.44 398.213 177.626C397.491 182.82 397.182 187.809 397.123 192.348C397.123 196.888 397.334 200.979 397.716 204.396C397.847 206.11 398.11 207.645 398.285 209C398.45 210.357 398.653 211.517 398.828 212.464C398.971 213.331 399.091 214.054 399.188 214.655C399.262 215.159 399.286 215.427 399.256 215.432C399.226 215.438 399.145 215.184 399.015 214.692C398.872 214.099 398.699 213.386 398.492 212.529C398.263 211.59 398.01 210.434 397.797 209.076C397.574 207.721 397.266 206.186 397.095 204.464C396.631 201.037 396.352 196.921 396.309 192.346C396.325 187.772 396.611 182.74 397.337 177.505C398.108 172.278 399.246 167.365 400.516 162.963C401.843 158.579 403.266 154.697 404.673 151.528C405.322 149.921 406.05 148.527 406.643 147.285C407.228 146.039 407.796 144.994 408.281 144.153C408.721 143.385 409.087 142.747 409.394 142.216C409.656 141.78 409.808 141.558 409.833 141.571Z" fill="#263238"/>
<path d="M497.929 124.612C497.941 124.64 497.706 124.763 497.246 124.977C496.785 125.188 496.106 125.501 495.215 125.868C493.437 126.618 490.832 127.641 487.563 128.809C481.027 131.15 471.781 133.968 461.247 136.313L460.821 136.408L460.72 135.989C460.527 135.186 460.31 134.327 460.065 133.466C458.799 128.965 457.277 124.7 456.328 120.599L457.058 120.765C453.356 125.192 450.021 129.119 447.032 132.169L446.799 132.405L446.578 132.169C445.257 130.753 444.341 129.318 443.491 128.088C442.68 126.881 441.969 125.823 441.358 124.917C440.182 123.183 439.39 122.335 439.438 122.288C439.456 122.271 439.688 122.454 440.076 122.855C440.468 123.253 440.996 123.884 441.641 124.72C442.283 125.555 443.034 126.604 443.903 127.815C444.783 129.01 445.748 130.427 447.03 131.742H446.578C449.462 128.672 452.751 124.692 456.407 120.252L456.943 119.602L457.138 120.418C458.103 124.446 459.637 128.695 460.915 133.237C461.162 134.106 461.381 134.979 461.578 135.795L461.05 135.469C471.552 133.147 480.79 130.439 487.36 128.25C490.647 127.16 493.278 126.225 495.089 125.569C496.902 124.909 497.905 124.556 497.929 124.612Z" fill="#263238"/>
<path d="M446.076 278.042C446.068 278.056 445.94 277.993 445.693 277.859C445.453 277.718 445.075 277.533 444.623 277.226C443.737 276.593 442.471 275.537 441.327 273.799C440.189 272.071 439.168 269.708 438.581 266.847C437.96 263.993 437.691 260.671 437.661 257.018C437.649 242.444 437.442 222.283 439.041 200.069C439.852 188.964 441.13 178.415 442.808 168.906C444.422 159.382 446.633 150.945 448.709 143.94C453.001 129.947 457.145 121.845 457.145 121.845C457.159 121.851 457.119 121.988 457.025 122.248C456.91 122.554 456.769 122.931 456.593 123.394C456.171 124.458 455.592 125.919 454.858 127.764C454.048 129.639 453.274 132.013 452.303 134.743C451.282 137.455 450.372 140.627 449.308 144.112C447.315 151.116 445.176 159.537 443.61 169.04C441.984 178.529 440.732 189.05 439.922 200.131C438.326 222.296 438.434 242.448 438.286 257.016C438.274 260.646 438.499 263.932 439.064 266.752C439.596 269.579 440.549 271.903 441.618 273.619C443.829 277.076 446.201 277.921 446.076 278.042Z" fill="#263238"/>
<path d="M472.479 246.697C472.469 246.756 471.605 246.672 470.047 246.469C468.489 246.273 466.244 245.906 463.486 245.379C457.969 244.329 450.411 242.485 442.307 239.705C434.203 236.91 427.126 233.722 422.149 231.162C419.657 229.884 417.673 228.797 416.33 227.994C414.983 227.199 414.254 226.735 414.284 226.684C414.314 226.631 415.102 226.996 416.495 227.699C417.884 228.41 419.91 229.412 422.428 230.615C427.461 233.024 434.538 236.108 442.597 238.886C450.659 241.651 458.148 243.579 463.613 244.78C466.344 245.383 468.565 245.84 470.103 246.137C471.641 246.441 472.489 246.639 472.479 246.697Z" fill="#263238"/>
<g opacity="0.3">
<path d="M518.607 228.676C518.617 228.678 518.629 228.678 518.637 228.68C518.571 228.627 518.489 228.584 518.426 228.531L518.607 228.676Z" fill="black"/>
<path d="M543.881 236.188C543.334 233.284 540.856 231.003 538.056 229.92C535.256 228.836 532.164 228.77 529.156 228.9C526.159 229.029 521.62 229.059 518.635 228.682C521.606 230.99 526.792 231.986 530.84 233.655C533.121 234.596 535.461 235.575 537.228 237.272C537.955 237.969 538.574 238.779 539.382 239.386C540.19 239.992 541.268 240.374 542.23 240.046C543.694 239.545 544.164 237.684 543.881 236.188Z" fill="black"/>
</g>
<g opacity="0.3">
<path d="M401.53 160.971C396.458 166.515 392.81 173.371 392.097 180.787C391.385 188.204 393.164 195.831 397.09 202.205L397.16 201.943C395.504 187.688 396.635 174.494 401.53 160.971Z" fill="black"/>
</g>
<path d="M396.305 297.62L407.342 273.25L509.654 271.701L523.943 296.032C523.943 296.032 465.654 322.257 396.305 297.62Z" fill="#263238"/>
</svg>
