<svg width="700" height="500" viewBox="0 0 700 500" fill="none" xmlns="http://www.w3.org/2000/svg">
<path d="M272.81 40H181.09V154.29H272.81V40Z" stroke="#A3A3A3" stroke-miterlimit="10"/>
<path d="M269.06 44.6801H184.84V149.62H269.06V44.6801Z" stroke="#A3A3A3" stroke-miterlimit="10"/>
<path d="M242.971 77.1899H210.941V117.1H242.971V77.1899Z" fill="#D6D6D6"/>
<path d="M340.821 76.13H278.621V153.64H340.821V76.13Z" stroke="#A3A3A3" stroke-miterlimit="10"/>
<path d="M338.35 79.2H281.08V150.56H338.35V79.2Z" stroke="#A3A3A3" stroke-miterlimit="10"/>
<path d="M320.581 101.35H298.861V128.42H320.581V101.35Z" fill="#D6D6D6"/>
<path d="M230.24 232.68V170.48H152.73V232.68H230.24Z" stroke="#A3A3A3" stroke-miterlimit="10"/>
<path d="M226.59 229.76V173.41H156.37V229.76H226.59Z" stroke="#A3A3A3" stroke-miterlimit="10"/>
<path d="M205.02 212.44V190.72H177.95V212.44H205.02Z" fill="#D6D6D6"/>
<path d="M316.861 170.02H237.461V268.95H316.861V170.02Z" stroke="#A3A3A3" stroke-miterlimit="10"/>
<path d="M313.66 174.01H240.66V264.97H313.66V174.01Z" stroke="#A3A3A3" stroke-miterlimit="10"/>
<path d="M291.031 202.21H263.301V236.76H291.031V202.21Z" fill="#D6D6D6"/>
<path d="M80.5898 254.67L100.54 445.91" stroke="#263238" stroke-width="2" stroke-miterlimit="10"/>
<path d="M96.8693 408.55L88.2793 399.76" stroke="#263238" stroke-width="2" stroke-miterlimit="10"/>
<path d="M90.9996 402.62C90.9824 401.157 90.6522 399.715 90.0312 398.39C89.4103 397.065 88.513 395.889 87.3996 394.94C85.0796 392.87 72.8496 387.73 71.6896 392.03C70.4596 396.71 82.9996 405.91 90.9996 402.62Z" fill="#2179FF" stroke="#263238" stroke-miterlimit="10"/>
<path d="M91.0306 402.62L79.3906 395.37" stroke="#263238" stroke-width="0.5" stroke-miterlimit="10"/>
<path d="M98.5188 430.2L90.5488 421.5" stroke="#263238" stroke-width="2" stroke-miterlimit="10"/>
<path d="M93.3006 424.37C93.2834 422.907 92.9533 421.465 92.3323 420.14C91.7114 418.815 90.814 417.639 89.7006 416.69C87.3806 414.62 75.1506 409.48 73.9906 413.78C72.7306 418.46 85.2406 427.66 93.3006 424.37Z" fill="#2179FF" stroke="#263238" stroke-miterlimit="10"/>
<path d="M93.3002 424.37L81.6602 417.12" stroke="#263238" stroke-width="0.5" stroke-miterlimit="10"/>
<path d="M91.3801 355.42L82.3301 345.86" stroke="#263238" stroke-width="2" stroke-miterlimit="10"/>
<path d="M85.4901 349.55C85.4729 348.087 85.1427 346.645 84.5218 345.32C83.9008 343.995 83.0035 342.819 81.8901 341.87C79.5701 339.8 67.3401 334.66 66.1801 338.96C64.9201 343.64 77.4301 352.84 85.4901 349.55Z" fill="#2179FF" stroke="#263238" stroke-miterlimit="10"/>
<path d="M85.4896 349.55L73.8496 342.3" stroke="#263238" stroke-width="0.5" stroke-miterlimit="10"/>
<path d="M93.1598 377.22L85.0098 368.43" stroke="#263238" stroke-width="2" stroke-miterlimit="10"/>
<path d="M87.7596 371.3C87.7424 369.837 87.4122 368.395 86.7913 367.07C86.1704 365.745 85.273 364.569 84.1596 363.62C81.8396 361.55 69.6096 356.41 68.4496 360.71C67.1896 365.39 79.6996 374.59 87.7596 371.3Z" fill="#2179FF" stroke="#263238" stroke-miterlimit="10"/>
<path d="M87.7591 371.3L76.1191 364.05" stroke="#263238" stroke-width="0.5" stroke-miterlimit="10"/>
<path d="M87.7988 320.11L79.0488 311.35" stroke="#263238" stroke-width="2" stroke-miterlimit="10"/>
<path d="M81.8004 314.22C81.7832 312.757 81.453 311.315 80.8321 309.99C80.2111 308.665 79.3138 307.489 78.2004 306.54C75.8804 304.47 63.6604 299.33 62.5004 303.63C61.2404 308.31 73.7504 317.51 81.8004 314.22Z" fill="#2179FF" stroke="#263238" stroke-miterlimit="10"/>
<path d="M81.7999 314.22L70.1699 306.97" stroke="#263238" stroke-width="0.5" stroke-miterlimit="10"/>
<path d="M83.6696 284.65L75.3496 275.87" stroke="#263238" stroke-width="2" stroke-miterlimit="10"/>
<path d="M78.0997 278.73C78.0817 277.269 77.7512 275.828 77.1302 274.505C76.5093 273.182 75.6124 272.007 74.4997 271.06C72.1797 269 59.9997 263.84 58.7897 268.15C57.5297 272.83 69.9997 282 78.0997 278.73Z" fill="#2179FF" stroke="#263238" stroke-miterlimit="10"/>
<path d="M78.099 278.73L66.459 271.48" stroke="#263238" stroke-width="0.5" stroke-miterlimit="10"/>
<path d="M95.8105 396.44L102.691 385.23" stroke="#263238" stroke-width="2" stroke-miterlimit="10"/>
<path d="M100.589 388.59C100.304 387.156 100.329 385.678 100.664 384.254C100.999 382.831 101.635 381.496 102.529 380.34C104.369 377.83 115.269 370.28 117.289 374.25C119.489 378.57 109.149 390.15 100.589 388.59Z" fill="#2179FF" stroke="#263238" stroke-miterlimit="10"/>
<path d="M100.59 388.59L111.06 378.58" stroke="#263238" stroke-width="0.5" stroke-miterlimit="10"/>
<path d="M89.8301 339.21L96.7101 327.99" stroke="#263238" stroke-width="2" stroke-miterlimit="10"/>
<path d="M94.6094 331.36C94.3271 329.926 94.3542 328.448 94.6887 327.026C95.0233 325.603 95.6576 324.268 96.5494 323.11C98.3994 320.6 109.289 313.05 111.319 317.02C113.519 321.34 103.179 332.92 94.6094 331.36Z" fill="#2179FF" stroke="#263238" stroke-miterlimit="10"/>
<path d="M94.6094 331.36L105.089 321.35" stroke="#263238" stroke-width="0.5" stroke-miterlimit="10"/>
<path d="M87.209 314.06L94.089 302.84" stroke="#263238" stroke-width="2" stroke-miterlimit="10"/>
<path d="M91.9992 306.21C91.7182 304.783 91.745 303.312 92.0778 301.897C92.4107 300.481 93.0419 299.152 93.9292 298C95.7692 295.49 106.669 287.93 108.689 291.91C110.889 296.19 100.549 307.77 91.9992 306.21Z" fill="#2179FF" stroke="#263238" stroke-miterlimit="10"/>
<path d="M91.9902 306.21L102.47 296.2" stroke="#263238" stroke-width="0.5" stroke-miterlimit="10"/>
<path d="M83.3594 277.19L90.2394 265.97" stroke="#263238" stroke-width="2" stroke-miterlimit="10"/>
<path d="M88.1406 269.34C87.8584 267.906 87.8854 266.428 88.22 265.006C88.5545 263.583 89.1889 262.248 90.0806 261.09C91.9206 258.58 102.821 251.02 104.851 254.99C107.051 259.32 96.7006 270.89 88.1406 269.34Z" fill="#2179FF" stroke="#263238" stroke-miterlimit="10"/>
<path d="M88.1406 269.34L98.6206 259.32" stroke="#263238" stroke-width="0.5" stroke-miterlimit="10"/>
<path d="M80.4195 253.61C80.1339 252.176 80.1593 250.698 80.494 249.274C80.8287 247.851 81.4648 246.516 82.3595 245.36C84.1995 242.85 95.0995 235.3 97.1195 239.27C99.3195 243.59 88.9995 255.17 80.4195 253.61Z" fill="#2179FF" stroke="#263238" stroke-miterlimit="10"/>
<path d="M80.4199 253.61L90.8999 243.6" stroke="#263238" stroke-width="0.5" stroke-miterlimit="10"/>
<path d="M80.9991 254C79.5437 254.133 78.0766 253.953 76.6967 253.472C75.3167 252.991 74.0559 252.219 72.9991 251.21C70.6991 249.11 64.3291 237.48 68.4891 235.89C72.9991 234.19 83.4691 245.69 80.9991 254Z" fill="#2179FF" stroke="#263238" stroke-miterlimit="10"/>
<path d="M81.0299 254.04L72.1699 242.58" stroke="#263238" stroke-width="0.5" stroke-miterlimit="10"/>
<path d="M133.229 281.41L116.949 445.91" stroke="#263238" stroke-width="2" stroke-miterlimit="10"/>
<path d="M117.769 436.18L110.879 424.96" stroke="#263238" stroke-width="2" stroke-miterlimit="10"/>
<path d="M113 428.33C113.286 426.896 113.261 425.418 112.926 423.994C112.591 422.571 111.955 421.236 111.06 420.08C109.19 417.57 98.2904 410 96.2704 414C94.0704 418.32 104.42 429.89 113 428.33Z" fill="#2179FF" stroke="#263238" stroke-miterlimit="10"/>
<path d="M112.98 428.33L103.09 418.84" stroke="#263238" stroke-width="0.5" stroke-miterlimit="10"/>
<path d="M123.281 383.1L116.391 371.89" stroke="#263238" stroke-width="2" stroke-miterlimit="10"/>
<path d="M118.49 375.26C118.773 373.824 118.746 372.345 118.411 370.921C118.077 369.496 117.442 368.16 116.55 367C114.7 364.5 103.8 356.95 101.78 360.92C99.5802 365.24 109.93 376.82 118.49 375.26Z" fill="#2179FF" stroke="#263238" stroke-miterlimit="10"/>
<path d="M118.49 375.26L108.6 365.76" stroke="#263238" stroke-width="0.5" stroke-miterlimit="10"/>
<path d="M121.019 404.85L114.129 393.64" stroke="#263238" stroke-width="2" stroke-miterlimit="10"/>
<path d="M116.23 397C116.516 395.564 116.491 394.084 116.156 392.66C115.822 391.235 115.185 389.898 114.29 388.74C112.44 386.24 101.54 378.69 99.5204 382.66C97.3204 387 107.67 398.57 116.23 397Z" fill="#2179FF" stroke="#263238" stroke-miterlimit="10"/>
<path d="M116.23 397.01L106.34 387.51" stroke="#263238" stroke-width="0.5" stroke-miterlimit="10"/>
<path d="M126.941 347.77L120.061 336.56" stroke="#263238" stroke-width="2" stroke-miterlimit="10"/>
<path d="M122.16 339.92C122.436 338.482 122.4 337.001 122.055 335.578C121.71 334.155 121.064 332.822 120.16 331.67C118.32 329.16 107.41 321.62 105.39 325.59C103.25 329.91 113.59 341.49 122.16 339.92Z" fill="#2179FF" stroke="#263238" stroke-miterlimit="10"/>
<path d="M122.16 339.92L112.26 330.43" stroke="#263238" stroke-width="0.5" stroke-miterlimit="10"/>
<path d="M130.62 312.28L123.74 301.07" stroke="#263238" stroke-width="2" stroke-miterlimit="10"/>
<path d="M125.84 304.44C126.115 303.002 126.079 301.521 125.734 300.098C125.389 298.675 124.743 297.342 123.84 296.19C122 293.68 111.1 286.13 109.08 290.1C106.93 294.43 117.28 306 125.84 304.44Z" fill="#2179FF" stroke="#263238" stroke-miterlimit="10"/>
<path d="M125.839 304.44L115.939 294.95" stroke="#263238" stroke-width="0.5" stroke-miterlimit="10"/>
<path d="M118.93 423.27L127.97 413.71" stroke="#263238" stroke-width="2" stroke-miterlimit="10"/>
<path d="M125.219 416.57C125.237 415.109 125.567 413.668 126.188 412.345C126.809 411.022 127.706 409.847 128.819 408.9C131.139 406.82 143.359 401.67 144.519 405.98C145.789 410.66 133.279 419.86 125.219 416.57Z" fill="#2179FF" stroke="#263238" stroke-miterlimit="10"/>
<path d="M125.219 416.57L137.539 408.93" stroke="#263238" stroke-width="0.5" stroke-miterlimit="10"/>
<path d="M124.869 366.03L133.909 356.47" stroke="#263238" stroke-width="2" stroke-miterlimit="10"/>
<path d="M131.16 359.34C131.177 357.877 131.508 356.435 132.128 355.11C132.749 353.785 133.647 352.609 134.76 351.66C137.08 349.59 149.3 344.44 150.46 348.74C151.73 353.42 139.22 362.62 131.16 359.34Z" fill="#2179FF" stroke="#263238" stroke-miterlimit="10"/>
<path d="M131.16 359.34L143.48 351.7" stroke="#263238" stroke-width="0.5" stroke-miterlimit="10"/>
<path d="M127.48 340.88L136.52 331.32" stroke="#263238" stroke-width="2" stroke-miterlimit="10"/>
<path d="M133.77 334.18C133.788 332.719 134.118 331.278 134.739 329.955C135.36 328.632 136.257 327.457 137.37 326.51C139.69 324.43 151.91 319.28 153.07 323.59C154.34 328.27 141.83 337.47 133.77 334.18Z" fill="#2179FF" stroke="#263238" stroke-miterlimit="10"/>
<path d="M133.77 334.18L146.09 326.54" stroke="#263238" stroke-width="0.5" stroke-miterlimit="10"/>
<path d="M131.299 304.01L140.349 294.45" stroke="#263238" stroke-width="2" stroke-miterlimit="10"/>
<path d="M137.6 297.31C137.617 295.847 137.947 294.405 138.568 293.08C139.189 291.755 140.086 290.579 141.2 289.63C143.52 287.56 155.74 282.41 156.9 286.71C158.16 291.39 145.66 300.6 137.6 297.31Z" fill="#2179FF" stroke="#263238" stroke-miterlimit="10"/>
<path d="M137.6 297.31L149.91 289.67" stroke="#263238" stroke-width="0.5" stroke-miterlimit="10"/>
<path d="M133.279 280.33C133.297 278.869 133.627 277.428 134.248 276.105C134.869 274.782 135.766 273.607 136.879 272.66C139.199 270.58 151.419 265.43 152.579 269.73C153.839 274.42 141.339 283.62 133.279 280.33Z" fill="#2179FF" stroke="#263238" stroke-miterlimit="10"/>
<path d="M133.279 280.33L145.589 272.69" stroke="#263238" stroke-width="0.5" stroke-miterlimit="10"/>
<path d="M133.78 280.88C132.328 280.711 130.93 280.233 129.679 279.477C128.429 278.722 127.355 277.706 126.53 276.5C124.71 273.97 120.87 261.28 125.27 260.58C130.06 259.81 137.9 273.21 133.78 280.88Z" fill="#2179FF" stroke="#263238" stroke-miterlimit="10"/>
<path d="M133.78 280.88L127.48 267.83" stroke="#263238" stroke-width="0.5" stroke-miterlimit="10"/>
<path d="M110.48 204.07V445.91" stroke="#263238" stroke-width="2" stroke-miterlimit="10"/>
<path d="M110.68 409.55L102.67 399.1" stroke="#263238" stroke-width="2" stroke-miterlimit="10"/>
<path d="M105.109 402.24C105.24 400.785 105.058 399.318 104.577 397.939C104.096 396.559 103.326 395.298 102.319 394.24C100.229 391.93 88.5989 385.55 86.9989 389.71C85.2589 394.23 96.7489 404.67 105.109 402.24Z" fill="#2179FF" stroke="#263238" stroke-miterlimit="10"/>
<path d="M105.109 402.24L94.2891 393.82" stroke="#263238" stroke-width="0.5" stroke-miterlimit="10"/>
<path d="M110.68 364.1L102.67 353.65" stroke="#263238" stroke-width="2" stroke-miterlimit="10"/>
<path d="M105.109 356.79C105.24 355.335 105.058 353.868 104.577 352.489C104.096 351.109 103.326 349.848 102.319 348.79C100.229 346.49 88.5989 340.1 86.9989 344.26C85.2589 348.78 96.7489 359.22 105.109 356.79Z" fill="#2179FF" stroke="#263238" stroke-miterlimit="10"/>
<path d="M105.109 356.79L94.2891 348.37" stroke="#263238" stroke-width="0.5" stroke-miterlimit="10"/>
<path d="M110.68 310.74L102.67 300.29" stroke="#263238" stroke-width="2" stroke-miterlimit="10"/>
<path d="M105.109 303.43C105.24 301.975 105.058 300.508 104.577 299.129C104.096 297.749 103.326 296.488 102.319 295.43C100.229 293.13 88.5989 286.74 86.9989 290.91C85.2589 295.42 96.7489 305.86 105.109 303.43Z" fill="#2179FF" stroke="#263238" stroke-miterlimit="10"/>
<path d="M105.109 303.43L94.2891 295.01" stroke="#263238" stroke-width="0.5" stroke-miterlimit="10"/>
<path d="M110.68 275.22L102.67 264.77" stroke="#263238" stroke-width="2" stroke-miterlimit="10"/>
<path d="M105.109 267.91C105.24 266.455 105.058 264.988 104.577 263.609C104.096 262.229 103.326 260.968 102.319 259.91C100.229 257.61 88.5989 251.22 86.9989 255.38C85.2589 259.9 96.7489 270.34 105.109 267.91Z" fill="#2179FF" stroke="#263238" stroke-miterlimit="10"/>
<path d="M105.109 267.91L94.2891 259.49" stroke="#263238" stroke-width="0.5" stroke-miterlimit="10"/>
<path d="M110.68 239.54L102.67 229.1" stroke="#263238" stroke-width="2" stroke-miterlimit="10"/>
<path d="M105.109 232.23C105.24 230.775 105.058 229.308 104.577 227.929C104.096 226.549 103.326 225.288 102.319 224.23C100.229 221.93 88.5989 215.55 86.9989 219.71C85.2589 224.22 96.7489 234.67 105.109 232.23Z" fill="#2179FF" stroke="#263238" stroke-miterlimit="10"/>
<path d="M105.109 232.23L94.2891 223.81" stroke="#263238" stroke-width="0.5" stroke-miterlimit="10"/>
<path d="M110.5 423.42L118.51 412.98" stroke="#263238" stroke-width="2" stroke-miterlimit="10"/>
<path d="M116.069 416.11C115.934 414.655 116.112 413.188 116.592 411.808C117.071 410.428 117.841 409.167 118.849 408.11C120.949 405.8 132.569 399.42 134.169 403.58C135.909 408.11 124.419 418.55 116.069 416.11Z" fill="#2179FF" stroke="#263238" stroke-miterlimit="10"/>
<path d="M116.07 416.11L127.53 407.24" stroke="#263238" stroke-width="0.5" stroke-miterlimit="10"/>
<path d="M110.5 351.14L118.51 340.7" stroke="#263238" stroke-width="2" stroke-miterlimit="10"/>
<path d="M116.071 343.83C115.937 342.375 116.115 340.909 116.595 339.529C117.074 338.149 117.843 336.888 118.851 335.83C120.951 333.53 132.571 327.15 134.171 331.31C135.911 335.82 124.421 346.27 116.071 343.83Z" fill="#2179FF" stroke="#263238" stroke-miterlimit="10"/>
<path d="M116.07 343.83L127.53 334.96" stroke="#263238" stroke-width="0.5" stroke-miterlimit="10"/>
<path d="M110.5 315.46L118.51 305.02" stroke="#263238" stroke-width="2" stroke-miterlimit="10"/>
<path d="M116.069 308.15C115.934 306.695 116.112 305.228 116.592 303.848C117.071 302.468 117.841 301.207 118.849 300.15C120.949 297.84 132.569 291.46 134.169 295.62C135.909 300.15 124.419 310.59 116.069 308.15Z" fill="#2179FF" stroke="#263238" stroke-miterlimit="10"/>
<path d="M116.07 308.15L127.53 299.28" stroke="#263238" stroke-width="0.5" stroke-miterlimit="10"/>
<path d="M110.5 268.31L118.51 257.87" stroke="#263238" stroke-width="2" stroke-miterlimit="10"/>
<path d="M116.071 261C115.937 259.545 116.115 258.079 116.595 256.699C117.074 255.319 117.843 254.058 118.851 253C120.951 250.7 132.571 244.32 134.171 248.48C135.911 253 124.421 263.44 116.071 261Z" fill="#2179FF" stroke="#263238" stroke-miterlimit="10"/>
<path d="M116.07 261L127.53 252.13" stroke="#263238" stroke-width="0.5" stroke-miterlimit="10"/>
<path d="M110.5 231.24L118.51 220.79" stroke="#263238" stroke-width="2" stroke-miterlimit="10"/>
<path d="M116.071 223.93C115.937 222.475 116.115 221.009 116.595 219.629C117.074 218.249 117.843 216.988 118.851 215.93C120.951 213.63 132.571 207.24 134.171 211.4C135.911 215.92 124.421 226.36 116.071 223.93Z" fill="#2179FF" stroke="#263238" stroke-miterlimit="10"/>
<path d="M116.07 223.93L127.53 215.05" stroke="#263238" stroke-width="0.5" stroke-miterlimit="10"/>
<path d="M109.999 207.48C109.864 206.025 110.042 204.558 110.521 203.178C111.001 201.798 111.771 200.537 112.779 199.48C114.879 197.17 126.499 190.79 128.099 194.95C129.859 199.48 118.369 209.92 109.999 207.48Z" fill="#2179FF" stroke="#263238" stroke-miterlimit="10"/>
<path d="M110.02 207.48L121.48 198.61" stroke="#263238" stroke-width="0.5" stroke-miterlimit="10"/>
<path d="M110.58 208C109.118 207.979 107.678 207.647 106.355 207.024C105.032 206.402 103.857 205.503 102.91 204.39C100.84 202.06 95.71 189.84 100.01 188.68C104.7 187.4 113.88 199.92 110.58 208Z" fill="#2179FF" stroke="#263238" stroke-miterlimit="10"/>
<path d="M110.579 207.98L102.959 195.65" stroke="#263238" stroke-width="0.5" stroke-miterlimit="10"/>
<path d="M249.11 446.05C245.56 435.15 236.88 408.22 237.58 407.18C238.44 405.88 238.44 398.94 238.44 398.94C238.44 398.94 210.24 402.41 190.29 385.49C170.34 368.57 146.47 348.62 146.47 348.62C146.47 348.62 143 359 139.53 369.88C136.6 379.05 130.87 430.41 129.17 446.05H249.11Z" fill="#263238" stroke="#263238" stroke-linecap="round" stroke-linejoin="round"/>
<path d="M179.32 415.83C184.38 420.51 193.13 428.76 199.57 435.69" stroke="#6E6E6E" stroke-linecap="round" stroke-linejoin="round"/>
<path d="M175.26 412.11L176.83 413.54" stroke="#6E6E6E" stroke-linecap="round" stroke-linejoin="round"/>
<path d="M273.719 229C273.719 229 244.059 241.44 230.509 250.6C216.959 259.76 189.509 286.48 181.449 297.1C173.389 307.72 153.619 330.1 148.499 336.27C143.379 342.44 140.079 346.16 141.499 356.41C142.919 366.66 151.749 383.14 161.269 391.56C170.789 399.98 189.819 410.5 214.359 409.5C228.629 408.92 237.059 405.84 244.749 398.15C252.439 390.46 264.159 370.32 274.409 360.44C284.659 350.56 302.229 330.44 302.229 330.44C302.229 330.44 349.099 347.28 353.489 347.28C357.879 347.28 379.859 334.83 380.219 331.17C380.579 327.51 331.889 295.29 327.499 287.23C323.109 279.17 313.999 264.5 313.999 264.5C313.999 264.5 291.999 232.65 273.719 229Z" fill="#7D7D7D" stroke="#263238" stroke-linecap="round" stroke-linejoin="round"/>
<path d="M327.54 287.2C323.14 279.15 313.99 264.5 313.99 264.5C309.392 258.032 304.34 251.9 298.87 246.15C297.06 246.446 295.334 247.128 293.81 248.15C282.45 256.52 287.81 277.44 289.02 294.15C289.851 304.449 292.923 314.442 298.02 323.43L280.33 354.53C290.28 344.17 302.33 330.4 302.33 330.4C302.33 330.4 349.2 347.24 353.59 347.24C357.98 347.24 379.96 334.79 380.32 331.13C380.68 327.47 331.93 295.26 327.54 287.2Z" fill="#263238" stroke="#263238" stroke-linecap="round" stroke-linejoin="round"/>
<path d="M260.14 237.55C260.14 237.55 252.93 233.95 247.88 251.26C242.83 268.57 255.81 314.02 262.31 314.74C268.81 315.46 282.51 281.56 284.67 271.46C286.83 261.36 280.34 231.06 260.14 237.55Z" fill="#2179FF" stroke="#263238" stroke-linecap="round" stroke-linejoin="round"/>
<path d="M282.499 275.12C282.499 275.12 278.759 278.3 273.349 282.44C267.129 287.2 265.979 296.06 261.589 290.93C257.199 285.8 250.649 249.86 254.679 242.53C258.709 235.2 273.679 225.32 274.809 224.59C275.939 223.86 286.159 237.41 286.899 247.29C287.639 257.17 282.499 275.12 282.499 275.12Z" fill="white" stroke="#263238" stroke-linecap="round" stroke-linejoin="round"/>
<path d="M274.809 224.59C273.719 225.32 258.699 235.21 254.679 242.53C253.089 245.41 253.149 252.73 254.059 260.85C255.499 261.83 257.059 262.873 258.739 263.98C272.309 272.93 282.499 275.12 282.499 275.12L283.249 235.99C279.999 229.48 275.519 224.12 274.809 224.59Z" fill="#263238" stroke="#263238" stroke-linecap="round" stroke-linejoin="round"/>
<path d="M340 234.11L324.62 260.47C319.49 269.26 313.62 279.47 303.38 281.71C293.14 283.95 283.25 285.37 277.75 276.58C272.25 267.79 266.4 256.08 270.06 239.97C273.72 223.86 279.95 219.1 287.64 213.24C295.33 207.38 303 203.72 311.79 207C320.58 210.28 340 234.11 340 234.11Z" fill="white" stroke="#263238" stroke-linecap="round" stroke-linejoin="round"/>
<path d="M308.871 243.16C308.101 244.52 306.811 245.25 306.001 244.78C305.191 244.31 305.151 242.84 305.921 241.48C306.691 240.12 307.981 239.4 308.801 239.86C309.621 240.32 309.651 241.8 308.871 243.16Z" fill="#263238" stroke="#263238" stroke-linecap="round" stroke-linejoin="round"/>
<path d="M324.781 250.69C324.011 252.05 322.721 252.78 321.911 252.32C321.101 251.86 321.061 250.37 321.831 249.01C322.601 247.65 323.891 246.93 324.711 247.39C325.531 247.85 325.561 249.34 324.781 250.69Z" fill="#263238" stroke="#263238" stroke-linecap="round" stroke-linejoin="round"/>
<path d="M304.4 232.19C306.245 231.859 308.138 231.911 309.961 232.343C311.785 232.774 313.5 233.577 315 234.7" stroke="#263238" stroke-width="2" stroke-linecap="round" stroke-linejoin="round"/>
<path d="M324.51 240.11C324.51 240.11 331.96 240.5 331.64 245.91" stroke="#263238" stroke-width="2" stroke-linecap="round" stroke-linejoin="round"/>
<path d="M296.26 259.22C296.26 259.22 298.26 265.59 307.94 268.47" stroke="#263238" stroke-linecap="round" stroke-linejoin="round"/>
<path d="M322.14 245L319.88 250.29C319.88 250.29 314.88 262.8 313.99 264.47C313.1 266.14 306.28 262.75 304.4 259.73" stroke="#263238" stroke-linecap="round" stroke-linejoin="round"/>
<path d="M279.57 231.18C279.57 231.18 280.67 231.18 283.57 229.35C286.47 227.52 289.8 230.82 296.75 228.25C303.7 225.68 293.82 215.8 303.34 215.07C312.86 214.34 317.99 229.72 329.7 235.21C341.41 240.7 349.48 238.51 354.6 225.32C359.72 212.13 352.41 204.45 346.55 198.6C340.69 192.75 346.55 191.6 344.72 182.49C342.89 173.38 333.72 169.67 324.95 172.97C316.18 176.27 318.35 178.83 313.59 178.83C308.83 178.83 304.44 172.6 291.26 175.16C278.08 177.72 267.83 191.64 266.36 204.82C264.89 218 269.29 231.91 271.12 232.65C272.95 233.39 279.57 231.18 279.57 231.18Z" fill="#263238" stroke="#263238" stroke-linecap="round" stroke-linejoin="round"/>
<path d="M279.59 236C279.59 236 283.21 224.76 279.37 221.43C275.53 218.1 269.16 220.23 267.85 225.2C266.54 230.17 264.47 239.09 266.64 241.37C268.81 243.65 273.05 242.96 273.05 242.96" fill="white"/>
<path d="M279.59 236C279.59 236 283.21 224.76 279.37 221.43C275.53 218.1 269.16 220.23 267.85 225.2C266.54 230.17 264.47 239.09 266.64 241.37C268.81 243.65 273.05 242.96 273.05 242.96" stroke="#263238" stroke-linecap="round" stroke-linejoin="round"/>
<path d="M401 446.05L385.26 388.22C384.099 383.949 381.564 380.179 378.047 377.491C374.53 374.804 370.226 373.349 365.8 373.35H302.83C297.8 373.349 292.951 375.227 289.235 378.616C285.518 382.005 283.202 386.661 282.74 391.67L277.74 446.05H401Z" fill="#263238" stroke="#263238" stroke-linecap="round" stroke-linejoin="round"/>
<path d="M356.1 327.5C356.1 327.5 308.86 348.74 306.67 350.93C304.48 353.12 290.92 446.05 290.92 446.05H453.86C453.86 446.05 428.59 348 425.3 345.81C422.01 343.62 378.8 325.67 377.7 325.67C376.6 325.67 356.1 327.5 356.1 327.5Z" fill="#2179FF" stroke="#263238" stroke-linecap="round" stroke-linejoin="round"/>
<path d="M412.999 331.5C412.999 331.5 417.669 331.72 418.519 332.99C419.369 334.26 421.519 342.12 420.639 343.99C419.759 345.86 417.879 344.2 416.639 341.87C415.399 339.54 414.299 337.2 414.299 337.2L411.959 335.5L412.999 331.5Z" fill="white" stroke="#263238" stroke-linecap="round" stroke-linejoin="round"/>
<path d="M407 326.83C407 326.83 412.95 327.47 413.8 329.59C414.65 331.71 414.43 337.24 413.58 340.42C412.73 343.6 411.25 345.73 409.97 344.67C408.69 343.61 406.15 332.35 406.15 331.08C406.15 329.81 406.36 326.83 407 326.83Z" fill="white" stroke="#263238" stroke-linecap="round" stroke-linejoin="round"/>
<path d="M402.76 323.86C402.76 323.86 408.28 325.35 409.34 326.86C410.4 328.37 410.4 336.63 409.34 339.81C408.28 342.99 405.73 343.81 404.45 343C403.17 342.19 401.91 336.84 401.91 334.29C401.91 331.74 402.76 323.86 402.76 323.86Z" fill="white" stroke="#263238" stroke-linecap="round" stroke-linejoin="round"/>
<path d="M395.741 322.94C395.741 322.94 401.351 320.78 403.071 322.94C404.791 325.1 403.931 341.48 402.641 343.21C401.351 344.94 397.461 343.21 397.461 341.05C397.461 338.89 396.001 333 396.001 333L389.311 330.28C389.311 330.28 392.721 322.94 395.741 322.94Z" fill="white" stroke="#263238" stroke-linecap="round" stroke-linejoin="round"/>
<path d="M395.96 332.99L395.33 327.9" stroke="#263238" stroke-linecap="round" stroke-linejoin="round"/>
<path d="M353.47 329.12C353.47 329.12 346.34 330.54 345.87 336.25C345.4 341.96 346.82 369.98 350.62 372.83C354.42 375.68 373 362.37 373 362.37C373 362.37 387.67 370 391 367.6C394.33 365.2 391.47 340.52 384.35 331.02C377.23 321.52 353.47 329.12 353.47 329.12Z" fill="white" stroke="#263238" stroke-linecap="round" stroke-linejoin="round"/>
<path d="M324.34 415.41L331.56 377.18" stroke="#263238" stroke-linecap="round" stroke-linejoin="round"/>
<path d="M413.07 369.96L421.73 401.3L415.96 444.99" stroke="#263238" stroke-linecap="round" stroke-linejoin="round"/>
<path d="M332.7 322.98C345.137 322.98 355.22 313.39 355.22 301.56C355.22 289.73 345.137 280.14 332.7 280.14C320.262 280.14 310.18 289.73 310.18 301.56C310.18 313.39 320.262 322.98 332.7 322.98Z" fill="#263238" stroke="#263238" stroke-linecap="round" stroke-linejoin="round"/>
<path d="M341.131 321C342.256 320.558 343.335 320.005 344.351 319.35" stroke="#6E6E6E" stroke-linecap="round" stroke-linejoin="round"/>
<path d="M312.999 291.75C312.999 291.75 307.679 306.15 316.449 315.85C322.619 322.69 331.119 323.47 337.569 322.02" stroke="#6E6E6E" stroke-linecap="round" stroke-linejoin="round"/>
<path d="M351.7 315.42C351.7 315.42 351.34 329.7 351.34 333.73C351.34 337.76 363.42 355.73 370.74 356.79C378.06 357.85 380.99 344.34 381.36 338.12C381.73 331.9 383.19 323.12 383.19 323.12C383.19 323.12 362 327.5 351.7 315.42Z" fill="white" stroke="#263238" stroke-linecap="round" stroke-linejoin="round"/>
<path d="M378.431 329.17L374.711 323.88C367.631 323.94 357.711 322.55 351.711 315.42C351.711 315.42 351.481 324.64 351.381 330.35C368.381 333.94 378.431 329.17 378.431 329.17Z" fill="#263238" stroke="#263238" stroke-linecap="round" stroke-linejoin="round"/>
<path d="M344.38 304.8C344.38 304.8 348.77 316.88 355 322.74C361.23 328.6 373.31 336.29 381.73 331.89C390.15 327.49 395.64 321.64 397.84 308.1C400.04 294.56 397.84 263.43 397.84 263.43C397.84 263.43 396.74 256.84 385.02 254.64C373.3 252.44 353.17 256.47 349.14 264.53C345.11 272.59 344 283.2 344 289.79C344 296.38 344.38 304.8 344.38 304.8Z" fill="white" stroke="#263238" stroke-linecap="round" stroke-linejoin="round"/>
<path d="M371.79 295.24C372.729 295.24 373.49 293.973 373.49 292.41C373.49 290.847 372.729 289.58 371.79 289.58C370.851 289.58 370.09 290.847 370.09 292.41C370.09 293.973 370.851 295.24 371.79 295.24Z" fill="#263238" stroke="#263238" stroke-linecap="round" stroke-linejoin="round"/>
<path d="M391.05 291.08C391.05 292.65 390.29 293.92 389.35 293.92C388.41 293.92 387.65 292.65 387.65 291.08C387.65 289.51 388.41 288.25 389.35 288.25C390.29 288.25 391.05 289.52 391.05 291.08Z" fill="#263238" stroke="#263238" stroke-linecap="round" stroke-linejoin="round"/>
<path d="M366.689 286.18C366.689 286.18 368.199 281.27 374.619 282.02" stroke="#263238" stroke-linecap="round" stroke-linejoin="round"/>
<path d="M385.57 282C385.57 282 389.35 276.72 394.63 283.51" stroke="#263238" stroke-linecap="round" stroke-linejoin="round"/>
<path d="M385.569 293C385.569 293 384.059 297.15 385.569 299C387.079 300.85 387.839 304.67 385.189 305.42C383.226 305.906 381.212 306.161 379.189 306.18" stroke="#263238" stroke-linecap="round" stroke-linejoin="round"/>
<path d="M370.471 312.6C370.471 312.6 375.381 317.14 385.191 314.87" stroke="#263238" stroke-linecap="round" stroke-linejoin="round"/>
<path d="M391.609 262.77L399.159 280.51C399.159 280.51 407.849 273.72 406.339 262.39C404.829 251.06 398.409 250.31 398.409 250.31L391.609 262.77Z" fill="#263238" stroke="#263238" stroke-linecap="round" stroke-linejoin="round"/>
<path d="M342.181 287.59C342.181 287.59 343.601 292.59 347.991 289.29C352.381 285.99 357.191 275.51 357.191 275.51C357.191 275.51 351.341 283.2 355.001 285.4C358.661 287.6 374.001 283.56 390.881 267.09C407.761 250.62 404.431 241.09 396.371 234.5C388.311 227.91 370.011 238.5 370.011 238.5C370.011 238.5 357.191 234.5 341.091 243.99C324.991 253.48 327.901 275.85 330.471 279.87C333.041 283.89 333.401 291.25 342.181 287.59Z" fill="#263238" stroke="#263238" stroke-linecap="round" stroke-linejoin="round"/>
<path d="M346.169 291.59C346.169 291.59 343.239 282.43 338.479 282.8C333.719 283.17 330.789 297.8 336.649 304.4C342.509 311 345.799 305.5 345.799 305.5" fill="white"/>
<path d="M346.169 291.59C346.169 291.59 343.239 282.43 338.479 282.8C333.719 283.17 330.789 297.8 336.649 304.4C342.509 311 345.799 305.5 345.799 305.5" stroke="#263238" stroke-linecap="round" stroke-linejoin="round"/>
<path d="M343.579 304C343.581 304.467 343.445 304.924 343.186 305.314C342.928 305.703 342.561 306.007 342.129 306.187C341.698 306.368 341.224 306.416 340.765 306.326C340.307 306.236 339.885 306.012 339.554 305.682C339.223 305.353 338.997 304.932 338.905 304.474C338.814 304.016 338.86 303.541 339.038 303.109C339.216 302.677 339.519 302.308 339.907 302.048C340.295 301.789 340.752 301.65 341.219 301.65C341.844 301.65 342.442 301.897 342.885 302.338C343.327 302.778 343.577 303.376 343.579 304Z" fill="#2179FF" stroke="#263238" stroke-linecap="round" stroke-linejoin="round"/>
<path d="M391.249 360.82L402.249 384.62C402.249 384.62 443.989 409.15 446.549 410.25C449.109 411.35 456.069 417.94 457.169 426.72C458.269 435.5 453.169 440.64 446.919 440.64C440.669 440.64 434.839 439.17 430.079 435.15C425.319 431.13 393.459 391.58 393.459 391.58C393.459 391.58 386.509 387.58 384.679 386.08C382.849 384.58 381.009 380.59 381.009 380.59C381.009 380.59 377.349 382.42 374.789 382.06C372.229 381.7 368.199 373.27 368.199 373.27C368.199 373.27 372.199 360.09 373.329 358.27C374.459 356.45 384.329 356.07 384.329 356.07L391.249 360.82Z" fill="white" stroke="#263238" stroke-linecap="round" stroke-linejoin="round"/>
<path d="M376.23 376.93L380.26 375.46L380.99 377.3V380.59" stroke="#263238" stroke-linecap="round" stroke-linejoin="round"/>
<path d="M353.17 381L362.32 353.17C362.32 353.17 372.94 349.17 375.87 348.41C378.8 347.65 387.58 355.41 389.42 355.73C391.26 356.05 392.34 360.49 391.25 360.86C390.16 361.23 386.49 359.39 386.49 359.39L375.49 361.23C375.49 361.23 372.2 378.43 368.54 382.46C365.535 385.486 362.22 388.188 358.65 390.52C358.65 390.52 323.14 433 320.58 437C318.02 441 305.58 448.35 296.78 443.22C287.98 438.09 292.78 425.65 295.32 421.22C297.86 416.79 353.17 381 353.17 381Z" fill="white" stroke="#263238" stroke-linecap="round" stroke-linejoin="round"/>
<path d="M389.42 355.69L380 353.65L373.32 355.14" stroke="#263238" stroke-linecap="round" stroke-linejoin="round"/>
<path d="M369.34 352.56L379.26 350.69L382.23 351.06" stroke="#263238" stroke-linecap="round" stroke-linejoin="round"/>
<path d="M238.35 255.41C238.35 255.41 244.95 272.99 243.85 290.56C242.75 308.13 248.24 365.62 249.71 371.84C251.18 378.06 253 388.69 253 388.69C253 388.69 310.48 416.51 320.74 420.54C328.271 423.357 335.973 425.695 343.8 427.54C343.8 427.54 365.4 420.21 367.6 418.38C369.8 416.55 375.29 419.11 375.29 419.11C375.29 419.11 387.01 422.41 387.74 423.51C388.47 424.61 388.1 439.25 388.1 439.25C388.1 439.25 389.57 443.25 388.47 443.65C387.37 444.05 375.29 446.94 371.26 445.84C367.23 444.74 356.62 439.98 356.62 439.98C356.62 439.98 348.56 442.91 344.53 442.18C340.5 441.45 335.38 440.35 335.38 440.35C335.38 440.35 267.28 429.35 248.97 424.97C230.66 420.59 219.32 418.02 217.49 411.43C215.66 404.84 196.98 323.92 196.25 319.53" fill="#7D7D7D"/>
<path d="M238.35 255.41C238.35 255.41 244.95 272.99 243.85 290.56C242.75 308.13 248.24 365.62 249.71 371.84C251.18 378.06 253 388.69 253 388.69C253 388.69 310.48 416.51 320.74 420.54C328.271 423.357 335.973 425.695 343.8 427.54C343.8 427.54 365.4 420.21 367.6 418.38C369.8 416.55 375.29 419.11 375.29 419.11C375.29 419.11 387.01 422.41 387.74 423.51C388.47 424.61 388.1 439.25 388.1 439.25C388.1 439.25 389.57 443.25 388.47 443.65C387.37 444.05 375.29 446.94 371.26 445.84C367.23 444.74 356.62 439.98 356.62 439.98C356.62 439.98 348.56 442.91 344.53 442.18C340.5 441.45 335.38 440.35 335.38 440.35C335.38 440.35 267.28 429.35 248.97 424.97C230.66 420.59 219.32 418.02 217.49 411.43C215.66 404.84 196.98 323.92 196.25 319.53" stroke="#263238" stroke-linecap="round" stroke-linejoin="round"/>
<path d="M361.14 431.71H384C386.201 431.71 388.312 432.584 389.869 434.141C391.425 435.698 392.3 437.809 392.3 440.01V446.01H352.84V440.01C352.84 437.809 353.714 435.698 355.271 434.141C356.827 432.584 358.939 431.71 361.14 431.71Z" fill="#263238" stroke="#263238" stroke-linecap="round" stroke-linejoin="round"/>
<path d="M371.26 445.8C375.26 446.9 387.37 443.97 388.47 443.61C389.57 443.25 388.1 439.21 388.1 439.21C388.1 439.21 388.47 424.57 387.74 423.47C387.01 422.37 375.29 419.07 375.29 419.07C375.29 419.07 369.8 416.51 367.6 418.34C365.4 420.17 343.8 427.5 343.8 427.5C335.974 425.655 328.271 423.317 320.74 420.5C317.11 419.08 307.59 414.68 296.79 409.59C283 413.29 281.89 425.32 282.23 431.31C307.23 435.73 335.38 440.31 335.38 440.31C335.38 440.31 340.51 441.41 344.53 442.14C348.55 442.87 356.62 439.94 356.62 439.94C356.62 439.94 367.24 444.7 371.26 445.8Z" fill="white" stroke="#263238" stroke-linecap="round" stroke-linejoin="round"/>
<path d="M374.92 422.74C374.92 422.74 381.15 430.06 383.34 432.99C385.53 435.92 388.1 439.21 388.1 439.21" stroke="#263238" stroke-linecap="round" stroke-linejoin="round"/>
<path d="M365.77 424.93C365.77 424.93 375.29 434.82 377.85 436.65C380.41 438.48 383.71 444.7 383.71 444.7" stroke="#263238" stroke-linecap="round" stroke-linejoin="round"/>
<path d="M358.08 431.16C358.08 431.16 370.16 439.94 371.63 441.04C373.309 442.531 374.899 444.121 376.39 445.8" stroke="#263238" stroke-linecap="round" stroke-linejoin="round"/>
<path d="M305.06 413.5C302.45 412.29 299.67 410.99 296.79 409.63C283 413.33 281.89 425.36 282.23 431.35L292.15 433.09C293.37 422.17 300.71 416.15 305.06 413.5Z" fill="#2179FF" stroke="#263238" stroke-linecap="round" stroke-linejoin="round"/>
<path d="M417.501 439.56H566.361V446H411.631V445.38C411.647 443.833 412.272 442.354 413.371 441.265C414.469 440.175 415.953 439.563 417.501 439.56Z" fill="#263238" stroke="#263238" stroke-linecap="round" stroke-linejoin="round"/>
<path d="M566.361 439.56H472.221V446.05H566.361V439.56Z" fill="white" stroke="#263238" stroke-linecap="round" stroke-linejoin="round"/>
<path d="M576.641 366.52H482.501L472.221 439.01H566.361L576.641 366.52Z" fill="white" stroke="#263238" stroke-linecap="round" stroke-linejoin="round"/>
<path d="M566.36 439L575.36 375.35C563.19 384.82 545.65 399.45 525.57 416.1C510.24 428.86 497.4 435.53 488 439H566.36Z" fill="#263238" stroke="#263238" stroke-linecap="round" stroke-linejoin="round"/>
<path d="M526.69 414.66C531.672 414.66 535.71 411.271 535.71 407.09C535.71 402.909 531.672 399.52 526.69 399.52C521.708 399.52 517.67 402.909 517.67 407.09C517.67 411.271 521.708 414.66 526.69 414.66Z" fill="white" stroke="#263238" stroke-linecap="round" stroke-linejoin="round"/>
<path d="M604 446.05H612.85" stroke="#263238" stroke-linecap="round" stroke-linejoin="round"/>
<path d="M68 446.05H597" stroke="#263238" stroke-linecap="round" stroke-linejoin="round"/>
<path d="M511.294 159.228C513.179 150.149 507.347 141.261 498.268 139.376C489.189 137.49 480.301 143.322 478.415 152.402C476.53 161.481 482.362 170.369 491.441 172.254C500.521 174.14 509.409 168.308 511.294 159.228Z" fill="#2179FF" stroke="#263238" stroke-linecap="round" stroke-linejoin="round"/>
<path d="M494.35 153.88V218.57" stroke="#263238" stroke-linecap="round" stroke-linejoin="round"/>
<path d="M494.35 163.43L503.9 153.53" stroke="#263238" stroke-linecap="round" stroke-linejoin="round"/>
<path d="M493.64 168.38L488.16 162.9" stroke="#263238" stroke-linecap="round" stroke-linejoin="round"/>
<path d="M475.254 187.181C480.967 184.796 483.665 178.231 481.28 172.518C478.894 166.804 472.329 164.106 466.616 166.492C460.903 168.877 458.205 175.442 460.59 181.155C462.975 186.868 469.541 189.566 475.254 187.181Z" fill="#2179FF" stroke="#263238" stroke-linecap="round" stroke-linejoin="round"/>
<path d="M470.58 175.52V218.72" stroke="#263238" stroke-linecap="round" stroke-linejoin="round"/>
<path d="M470.58 181.89L476.96 175.28" stroke="#263238" stroke-linecap="round" stroke-linejoin="round"/>
<path d="M470.109 185.19L466.449 181.54" stroke="#263238" stroke-linecap="round" stroke-linejoin="round"/>
<path d="M578.899 178.88C585.091 178.88 590.109 173.861 590.109 167.67C590.109 161.479 585.091 156.46 578.899 156.46C572.708 156.46 567.689 161.479 567.689 167.67C567.689 173.861 572.708 178.88 578.899 178.88Z" fill="#2179FF" stroke="#263238" stroke-linecap="round" stroke-linejoin="round"/>
<path d="M578.539 166.37V209.58" stroke="#263238" stroke-linecap="round" stroke-linejoin="round"/>
<path d="M578.539 172.75L584.919 166.14" stroke="#263238" stroke-linecap="round" stroke-linejoin="round"/>
<path d="M578.07 176.05L574.41 172.39" stroke="#263238" stroke-linecap="round" stroke-linejoin="round"/>
<path d="M586.049 194.66H471.549V230.79H586.049V194.66Z" fill="white" stroke="#263238" stroke-linecap="round" stroke-linejoin="round"/>
<path d="M528.949 161.69L471.859 194.66H586.049L528.949 161.69Z" fill="#2179FF" stroke="#263238" stroke-linecap="round" stroke-linejoin="round"/>
<path d="M552 191.72H523.67V230.79H552V191.72Z" fill="white" stroke="#263238" stroke-linecap="round" stroke-linejoin="round"/>
<path d="M552 191.72H523.67V193.38H552V191.72Z" fill="#263238" stroke="#263238" stroke-linecap="round" stroke-linejoin="round"/>
<path d="M544.91 230.79H530.76V206.37C530.76 204.495 531.505 202.697 532.831 201.371C534.156 200.045 535.955 199.3 537.83 199.3C538.759 199.299 539.679 199.481 540.538 199.835C541.397 200.19 542.178 200.711 542.835 201.367C543.493 202.024 544.015 202.804 544.371 203.662C544.727 204.52 544.91 205.441 544.91 206.37V230.79Z" fill="#263238" stroke="#263238" stroke-linecap="round" stroke-linejoin="round"/>
<path d="M528.96 200.99H463.33V230.79H528.96V200.99Z" fill="white" stroke="#263238" stroke-linecap="round" stroke-linejoin="round"/>
<path d="M528.96 200.99H463.33V202.32H528.96V200.99Z" fill="#263238" stroke="#263238" stroke-linecap="round" stroke-linejoin="round"/>
<path d="M521.739 203.45H470.549V230.79H521.739V203.45Z" fill="#2179FF" stroke="#263238" stroke-linecap="round" stroke-linejoin="round"/>
<path d="M496.148 179.19L461.318 199.3H530.978L496.148 179.19Z" fill="#2179FF" stroke="#263238" stroke-linecap="round" stroke-linejoin="round"/>
<path d="M530.978 199.3H461.318V200.99H530.978V199.3Z" fill="white" stroke="#263238" stroke-linecap="round" stroke-linejoin="round"/>
<path d="M537.829 180.38L519.789 190.8H555.869L537.829 180.38Z" fill="#2179FF" stroke="#263238" stroke-linecap="round" stroke-linejoin="round"/>
<path d="M555.879 190.8H519.799V192.47H555.879V190.8Z" fill="white" stroke="#263238" stroke-linecap="round" stroke-linejoin="round"/>
<path d="M476.57 205.64H472.42V209.79H476.57V205.64Z" fill="white" stroke="#263238" stroke-width="0.5" stroke-linecap="round" stroke-linejoin="round"/>
<path d="M482.789 205.64H478.639V209.79H482.789V205.64Z" fill="white" stroke="#263238" stroke-width="0.5" stroke-linecap="round" stroke-linejoin="round"/>
<path d="M489 205.64H484.85V209.79H489V205.64Z" fill="white" stroke="#263238" stroke-width="0.5" stroke-linecap="round" stroke-linejoin="round"/>
<path d="M495.218 205.64H491.068V209.79H495.218V205.64Z" fill="white" stroke="#263238" stroke-width="0.5" stroke-linecap="round" stroke-linejoin="round"/>
<path d="M501.439 205.64H497.289V209.79H501.439V205.64Z" fill="white" stroke="#263238" stroke-width="0.5" stroke-linecap="round" stroke-linejoin="round"/>
<path d="M507.66 205.64H503.51V209.79H507.66V205.64Z" fill="white" stroke="#263238" stroke-width="0.5" stroke-linecap="round" stroke-linejoin="round"/>
<path d="M513.869 205.64H509.719V209.79H513.869V205.64Z" fill="white" stroke="#263238" stroke-width="0.5" stroke-linecap="round" stroke-linejoin="round"/>
<path d="M520.089 205.64H515.939V209.79H520.089V205.64Z" fill="white" stroke="#263238" stroke-width="0.5" stroke-linecap="round" stroke-linejoin="round"/>
<path d="M476.57 211.74H472.42V215.89H476.57V211.74Z" fill="white" stroke="#263238" stroke-width="0.5" stroke-linecap="round" stroke-linejoin="round"/>
<path d="M482.789 211.74H478.639V215.89H482.789V211.74Z" fill="white" stroke="#263238" stroke-width="0.5" stroke-linecap="round" stroke-linejoin="round"/>
<path d="M489 211.74H484.85V215.89H489V211.74Z" fill="white" stroke="#263238" stroke-width="0.5" stroke-linecap="round" stroke-linejoin="round"/>
<path d="M495.218 211.74H491.068V215.89H495.218V211.74Z" fill="white" stroke="#263238" stroke-width="0.5" stroke-linecap="round" stroke-linejoin="round"/>
<path d="M501.439 211.74H497.289V215.89H501.439V211.74Z" fill="white" stroke="#263238" stroke-width="0.5" stroke-linecap="round" stroke-linejoin="round"/>
<path d="M507.66 211.74H503.51V215.89H507.66V211.74Z" fill="white" stroke="#263238" stroke-width="0.5" stroke-linecap="round" stroke-linejoin="round"/>
<path d="M513.869 211.74H509.719V215.89H513.869V211.74Z" fill="white" stroke="#263238" stroke-width="0.5" stroke-linecap="round" stroke-linejoin="round"/>
<path d="M520.089 211.74H515.939V215.89H520.089V211.74Z" fill="white" stroke="#263238" stroke-width="0.5" stroke-linecap="round" stroke-linejoin="round"/>
<path d="M476.57 217.84H472.42V221.99H476.57V217.84Z" fill="white" stroke="#263238" stroke-width="0.5" stroke-linecap="round" stroke-linejoin="round"/>
<path d="M482.789 217.84H478.639V221.99H482.789V217.84Z" fill="white" stroke="#263238" stroke-width="0.5" stroke-linecap="round" stroke-linejoin="round"/>
<path d="M489 217.84H484.85V221.99H489V217.84Z" fill="white" stroke="#263238" stroke-width="0.5" stroke-linecap="round" stroke-linejoin="round"/>
<path d="M495.218 217.84H491.068V221.99H495.218V217.84Z" fill="white" stroke="#263238" stroke-width="0.5" stroke-linecap="round" stroke-linejoin="round"/>
<path d="M501.439 217.84H497.289V221.99H501.439V217.84Z" fill="white" stroke="#263238" stroke-width="0.5" stroke-linecap="round" stroke-linejoin="round"/>
<path d="M507.66 217.84H503.51V221.99H507.66V217.84Z" fill="white" stroke="#263238" stroke-width="0.5" stroke-linecap="round" stroke-linejoin="round"/>
<path d="M513.869 217.84H509.719V221.99H513.869V217.84Z" fill="white" stroke="#263238" stroke-width="0.5" stroke-linecap="round" stroke-linejoin="round"/>
<path d="M520.089 217.84H515.939V221.99H520.089V217.84Z" fill="white" stroke="#263238" stroke-width="0.5" stroke-linecap="round" stroke-linejoin="round"/>
<path d="M476.57 223.94H472.42V228.09H476.57V223.94Z" fill="white" stroke="#263238" stroke-width="0.5" stroke-linecap="round" stroke-linejoin="round"/>
<path d="M482.789 223.94H478.639V228.09H482.789V223.94Z" fill="white" stroke="#263238" stroke-width="0.5" stroke-linecap="round" stroke-linejoin="round"/>
<path d="M489 223.94H484.85V228.09H489V223.94Z" fill="white" stroke="#263238" stroke-width="0.5" stroke-linecap="round" stroke-linejoin="round"/>
<path d="M495.218 223.94H491.068V228.09H495.218V223.94Z" fill="white" stroke="#263238" stroke-width="0.5" stroke-linecap="round" stroke-linejoin="round"/>
<path d="M501.439 223.94H497.289V228.09H501.439V223.94Z" fill="white" stroke="#263238" stroke-width="0.5" stroke-linecap="round" stroke-linejoin="round"/>
<path d="M507.66 223.94H503.51V228.09H507.66V223.94Z" fill="white" stroke="#263238" stroke-width="0.5" stroke-linecap="round" stroke-linejoin="round"/>
<path d="M513.869 223.94H509.719V228.09H513.869V223.94Z" fill="white" stroke="#263238" stroke-width="0.5" stroke-linecap="round" stroke-linejoin="round"/>
<path d="M520.089 223.94H515.939V228.09H520.089V223.94Z" fill="white" stroke="#263238" stroke-width="0.5" stroke-linecap="round" stroke-linejoin="round"/>
<path d="M589.3 230.79H547.43V191.72L568.37 180.38L589.3 191.72V230.79Z" fill="white" stroke="#263238" stroke-linecap="round" stroke-linejoin="round"/>
<path d="M592.499 193.39L568.369 180.31L544.239 193.39L543.479 192L568.369 178.52L593.249 192L592.499 193.39Z" fill="white" stroke="#263238" stroke-linecap="round" stroke-linejoin="round"/>
<path d="M547.43 191.72V192.67L568.37 181.33L589.3 192.67V191.72L568.37 180.38L547.43 191.72Z" fill="#263238" stroke="#263238" stroke-linecap="round" stroke-linejoin="round"/>
<path d="M576.059 205.11H569.039V209.99H576.059V205.11Z" fill="#263238" stroke="#263238" stroke-linecap="round" stroke-linejoin="round"/>
<path d="M576.059 211.6H569.039V216.48H576.059V211.6Z" fill="#263238" stroke="#263238" stroke-linecap="round" stroke-linejoin="round"/>
<path d="M576.059 198.3H569.039V203.51H576.059V198.3Z" fill="#263238" stroke="#263238" stroke-linecap="round" stroke-linejoin="round"/>
<path d="M567.43 198.3H560.41V203.51H567.43V198.3Z" fill="#263238" stroke="#263238" stroke-linecap="round" stroke-linejoin="round"/>
<path d="M567.43 211.6H560.41V216.48H567.43V211.6Z" fill="#263238" stroke="#263238" stroke-linecap="round" stroke-linejoin="round"/>
<path d="M567.43 205.11H560.41V209.99H567.43V205.11Z" fill="#263238" stroke="#263238" stroke-linecap="round" stroke-linejoin="round"/>
<path d="M576.059 218.09H569.039V222.58H576.059V218.09Z" fill="#263238" stroke="#263238" stroke-linecap="round" stroke-linejoin="round"/>
<path d="M567.43 218.09H560.41V222.58H567.43V218.09Z" fill="#263238" stroke="#263238" stroke-linecap="round" stroke-linejoin="round"/>
<path d="M562.91 245.86H490.35C486.484 245.86 483.35 248.994 483.35 252.86V272.04C483.35 275.906 486.484 279.04 490.35 279.04H562.91C566.776 279.04 569.91 275.906 569.91 272.04V252.86C569.91 248.994 566.776 245.86 562.91 245.86Z" fill="#2179FF" stroke="#263238" stroke-linecap="round" stroke-linejoin="round"/>
<path d="M509.21 255.8C511.21 255.8 512.29 257.02 512.29 259.16V259.58H510.29V259C510.29 258.05 509.91 257.69 509.24 257.69C508.57 257.69 508.24 258.05 508.24 259C508.24 261.75 512.33 262.26 512.33 266.07C512.33 268.21 511.27 269.43 509.21 269.43C507.15 269.43 506.08 268.21 506.08 266.07V265.25H508.08V266.25C508.08 267.2 508.5 267.54 509.17 267.54C509.84 267.54 510.26 267.2 510.26 266.25C510.26 263.5 506.16 262.99 506.16 259.18C506.12 257 507.17 255.8 509.21 255.8Z" fill="#263238"/>
<path d="M515.61 261.58H518.48V263.48H515.61V267.39H519.23V269.29H513.51V256H519.23V257.9H515.61V261.58Z" fill="#263238"/>
<path d="M520.52 256H522.609V267.43H526.06V269.33H520.52V256Z" fill="#263238"/>
<path d="M529.07 261.58H532V263.48H529.12V267.39H532.74V269.29H527V256H532.72V257.9H529.1L529.07 261.58Z" fill="#263238"/>
<path d="M540.059 264.32V266.09C540.059 268.23 538.989 269.45 536.939 269.45C534.889 269.45 533.809 268.23 533.809 266.09V259.16C533.809 257.02 534.879 255.8 536.939 255.8C538.999 255.8 540.059 257.02 540.059 259.16V260.45H538.059V259C538.059 258.05 537.639 257.69 536.969 257.69C536.299 257.69 535.889 258.05 535.889 259V266.21C535.889 267.16 536.309 267.5 536.969 267.5C537.629 267.5 538.059 267.16 538.059 266.21V264.3L540.059 264.32Z" fill="#263238"/>
<path d="M540.729 256H547.199V257.9H544.999V269.33H542.909V257.86H540.719L540.729 256Z" fill="#263238"/>
<path d="M554.999 294.28C554.999 294.28 550.699 287.34 549.309 286.28C547.919 285.22 544.589 285.28 544.039 287.66C543.489 290.04 544.869 291.27 545.839 292.24C547.098 293.834 548.257 295.503 549.309 297.24C550.499 299.17 550.759 302.14 551.809 304.24C554.209 309.05 558.919 313.13 564.519 313.16C570.719 313.16 576.659 307.85 577.519 301.67C577.859 299.05 577.919 291.75 577.929 289.23C577.938 288.667 577.743 288.12 577.379 287.69C576.913 287.152 576.271 286.797 575.568 286.689C574.864 286.581 574.145 286.727 573.539 287.1L573.079 287.38L572.589 286.61C572.233 286.002 571.704 285.515 571.069 285.21C570.53 284.925 569.912 284.823 569.309 284.921C568.706 285.018 568.152 285.309 567.729 285.75L567.249 286.28L566.689 285.37C565.469 283.9 562.829 283.76 561.689 285.3V274.3C561.689 273.433 561.345 272.601 560.732 271.988C560.118 271.374 559.287 271.03 558.419 271.03C557.552 271.03 556.721 271.374 556.107 271.988C555.494 272.601 555.149 273.433 555.149 274.3L554.999 294.28Z" fill="white" stroke="#263238" stroke-linecap="round" stroke-linejoin="round"/>
<path d="M567.17 286.24V292.62" stroke="#263238" stroke-linecap="round" stroke-linejoin="round"/>
<path d="M573 287.34V293.03" stroke="#263238" stroke-linecap="round" stroke-linejoin="round"/>
<path d="M561.619 285.26V291.78" stroke="#263238" stroke-linecap="round" stroke-linejoin="round"/>
<path d="M558.35 262.12V268.6" stroke="#263238" stroke-linecap="round" stroke-linejoin="round"/>
<path d="M563.59 272.59H569.08" stroke="#263238" stroke-linecap="round" stroke-linejoin="round"/>
<path d="M546.879 272.59H552.369" stroke="#263238" stroke-linecap="round" stroke-linejoin="round"/>
<path d="M562.34 268.6L564.59 265.86" stroke="#263238" stroke-linecap="round" stroke-linejoin="round"/>
<path d="M553.609 268.6L551.369 265.86" stroke="#263238" stroke-linecap="round" stroke-linejoin="round"/>
<path d="M595.278 114.92H458.408C454.172 114.92 450.738 118.354 450.738 122.59V315C450.738 319.236 454.172 322.67 458.408 322.67H595.278C599.514 322.67 602.948 319.236 602.948 315V122.59C602.948 118.354 599.514 114.92 595.278 114.92Z" stroke="#263238" stroke-linecap="round" stroke-linejoin="round"/>
<path d="M594.659 114.92H458.999C456.798 114.92 454.687 115.794 453.13 117.351C451.574 118.908 450.699 121.019 450.699 123.22V125H602.999V123.2C602.998 122.108 602.781 121.027 602.361 120.019C601.94 119.011 601.325 118.096 600.55 117.327C599.775 116.557 598.856 115.949 597.845 115.536C596.834 115.123 595.751 114.913 594.659 114.92Z" fill="#263238" stroke="#263238" stroke-linecap="round" stroke-linejoin="round"/>
<path d="M579.869 122.11C581.162 122.11 582.209 121.062 582.209 119.77C582.209 118.478 581.162 117.43 579.869 117.43C578.577 117.43 577.529 118.478 577.529 119.77C577.529 121.062 578.577 122.11 579.869 122.11Z" fill="white" stroke="#263238" stroke-linecap="round" stroke-linejoin="round"/>
<path d="M588.529 122.11C589.822 122.11 590.869 121.062 590.869 119.77C590.869 118.478 589.822 117.43 588.529 117.43C587.237 117.43 586.189 118.478 586.189 119.77C586.189 121.062 587.237 122.11 588.529 122.11Z" fill="white" stroke="#263238" stroke-linecap="round" stroke-linejoin="round"/>
<path d="M530.939 323.39V366.68" stroke="#263238" stroke-linecap="round" stroke-linejoin="round"/>
</svg>
