<svg width="214" height="53" viewBox="0 0 214 53" fill="none" xmlns="http://www.w3.org/2000/svg">
<path d="M26 45H8V17" stroke="#2179FF" stroke-width="4" stroke-miterlimit="10"/>
<path d="M46 21L24 3L2 21" stroke="#2179FF" stroke-width="4" stroke-miterlimit="10"/>
<path d="M43.4542 31.25C43.2952 30.697 43.0717 30.2083 42.7838 29.7841C42.4959 29.3523 42.1436 28.9886 41.727 28.6932C41.3179 28.3902 40.8482 28.1591 40.3179 28C39.7952 27.8409 39.2156 27.7614 38.5792 27.7614C37.3899 27.7614 36.3444 28.0568 35.4429 28.6477C34.5489 29.2386 33.852 30.0985 33.352 31.2273C32.852 32.3485 32.602 33.7197 32.602 35.3409C32.602 36.9621 32.8482 38.3409 33.3406 39.4773C33.833 40.6136 34.53 41.4811 35.4315 42.0795C36.333 42.6705 37.3974 42.9659 38.6247 42.9659C39.7383 42.9659 40.6891 42.7689 41.477 42.375C42.2724 41.9735 42.8785 41.4091 43.2952 40.6818C43.7194 39.9545 43.9315 39.0947 43.9315 38.1023L44.9315 38.25H38.9315V34.5455H48.6702V37.4773C48.6702 39.5227 48.2383 41.2803 47.3747 42.75C46.5111 44.2121 45.3217 45.3409 43.8065 46.1364C42.2914 46.9242 40.5565 47.3182 38.602 47.3182C36.4202 47.3182 34.5035 46.8371 32.852 45.875C31.2005 44.9053 29.9126 43.5303 28.9883 41.75C28.0717 39.9621 27.6133 37.8409 27.6133 35.3864C27.6133 33.5 27.8861 31.8182 28.4315 30.3409C28.9845 28.8561 29.7573 27.5985 30.7497 26.5682C31.7421 25.5379 32.8974 24.7538 34.2156 24.2159C35.5338 23.678 36.9618 23.4091 38.4997 23.4091C39.8179 23.4091 41.0452 23.6023 42.1815 23.9886C43.3179 24.3674 44.3255 24.9053 45.2042 25.6023C46.0906 26.2992 46.8141 27.1288 47.3747 28.0909C47.9353 29.0455 48.2952 30.0985 48.4542 31.25H43.4542ZM62.3548 23.7273V47H57.4344V28.3977H57.298L51.9685 31.7386V27.375L57.7298 23.7273H62.3548ZM67.8861 47V43.4545L76.1702 35.7841C76.8747 35.1023 77.4656 34.4886 77.9429 33.9432C78.4277 33.3977 78.7952 32.8636 79.0452 32.3409C79.2952 31.8106 79.4202 31.2386 79.4202 30.625C79.4202 29.9432 79.2649 29.3561 78.9542 28.8636C78.6436 28.3636 78.2194 27.9811 77.6815 27.7159C77.1436 27.4432 76.5338 27.3068 75.852 27.3068C75.1399 27.3068 74.5186 27.4508 73.9883 27.7386C73.458 28.0265 73.0489 28.4394 72.7611 28.9773C72.4732 29.5152 72.3292 30.1553 72.3292 30.8977H67.6588C67.6588 29.375 68.0035 28.053 68.6929 26.9318C69.3823 25.8106 70.3482 24.9432 71.5906 24.3295C72.833 23.7159 74.2649 23.4091 75.8861 23.4091C77.5527 23.4091 79.0035 23.7045 80.2383 24.2955C81.4808 24.8788 82.4467 25.6894 83.1361 26.7273C83.8255 27.7652 84.1702 28.9545 84.1702 30.2955C84.1702 31.1742 83.9959 32.0417 83.6474 32.8977C83.3065 33.7538 82.6967 34.7045 81.8179 35.75C80.9391 36.7879 79.7005 38.0341 78.102 39.4886L74.7042 42.8182V42.9773H84.477V47H67.8861Z" fill="#2179FF"/>
<path d="M91.5398 29.5455V47H87.321V29.5455H91.5398ZM98.9695 47.1875C98.0036 47.1875 97.1257 46.9375 96.3359 46.4375C95.5462 45.9375 94.9155 45.1875 94.4439 44.1875C93.9723 43.1875 93.7365 41.946 93.7365 40.4631C93.7365 38.9233 93.9808 37.6562 94.4695 36.6619C94.9581 35.6676 95.5973 34.9318 96.3871 34.4545C97.1825 33.9773 98.0376 33.7386 98.9524 33.7386C99.6399 33.7386 100.228 33.858 100.717 34.0966C101.205 34.3295 101.609 34.6307 101.927 35C102.245 35.3693 102.487 35.7528 102.651 36.1506H102.737V29.5455H106.904V47H102.779V44.8778H102.651C102.475 45.2812 102.225 45.6591 101.901 46.0114C101.577 46.3636 101.171 46.6477 100.683 46.8636C100.2 47.0795 99.6286 47.1875 98.9695 47.1875ZM100.418 43.9403C100.924 43.9403 101.356 43.7983 101.714 43.5142C102.072 43.2244 102.347 42.8182 102.54 42.2955C102.734 41.7727 102.83 41.1591 102.83 40.4545C102.83 39.7386 102.734 39.1222 102.54 38.6051C102.353 38.0881 102.077 37.6903 101.714 37.4119C101.356 37.1335 100.924 36.9943 100.418 36.9943C99.9013 36.9943 99.4638 37.1364 99.1058 37.4205C98.7479 37.7045 98.4751 38.1051 98.2876 38.6222C98.1058 39.1392 98.0149 39.75 98.0149 40.4545C98.0149 41.1591 98.1087 41.7727 98.2962 42.2955C98.4837 42.8182 98.7536 43.2244 99.1058 43.5142C99.4638 43.7983 99.9013 43.9403 100.418 43.9403ZM115.659 47.2472C114.29 47.2472 113.108 46.9773 112.114 46.4375C111.125 45.892 110.364 45.1165 109.83 44.1108C109.301 43.0994 109.037 41.8977 109.037 40.5057C109.037 39.1534 109.304 37.9716 109.838 36.9602C110.372 35.9432 111.125 35.1534 112.097 34.5909C113.068 34.0227 114.213 33.7386 115.531 33.7386C116.463 33.7386 117.315 33.8835 118.088 34.1733C118.861 34.4631 119.528 34.892 120.091 35.4602C120.653 36.0284 121.091 36.7301 121.403 37.5653C121.716 38.3949 121.872 39.3466 121.872 40.4205V41.4602H110.494V39.0398H117.994C117.989 38.5966 117.884 38.2017 117.679 37.8551C117.474 37.5085 117.193 37.2386 116.835 37.0455C116.483 36.8466 116.077 36.7472 115.616 36.7472C115.151 36.7472 114.733 36.8523 114.364 37.0625C113.994 37.267 113.702 37.5483 113.486 37.9062C113.27 38.2585 113.156 38.6591 113.145 39.108V41.571C113.145 42.1051 113.25 42.5739 113.46 42.9773C113.67 43.375 113.969 43.6847 114.355 43.9062C114.741 44.1278 115.202 44.2386 115.736 44.2386C116.105 44.2386 116.44 44.1875 116.741 44.0852C117.043 43.983 117.301 43.8324 117.517 43.6335C117.733 43.4347 117.895 43.1903 118.003 42.9006L121.83 43.0114C121.67 43.8693 121.321 44.6165 120.781 45.2528C120.247 45.8835 119.545 46.375 118.676 46.7273C117.807 47.0739 116.801 47.2472 115.659 47.2472ZM127.691 47.2216C126.856 47.2216 126.114 47.0824 125.467 46.804C124.825 46.5199 124.316 46.0937 123.941 45.5256C123.572 44.9517 123.387 44.233 123.387 43.3693C123.387 42.642 123.515 42.0284 123.771 41.5284C124.026 41.0284 124.379 40.6222 124.827 40.3097C125.276 39.9972 125.793 39.7614 126.379 39.6023C126.964 39.4375 127.589 39.3267 128.254 39.2699C128.998 39.2017 129.597 39.1307 130.052 39.0568C130.506 38.9773 130.836 38.8665 131.04 38.7244C131.251 38.5767 131.356 38.3693 131.356 38.1023V38.0597C131.356 37.6222 131.205 37.2841 130.904 37.0455C130.603 36.8068 130.197 36.6875 129.685 36.6875C129.134 36.6875 128.691 36.8068 128.356 37.0455C128.021 37.2841 127.808 37.6136 127.717 38.0341L123.873 37.8977C123.987 37.1023 124.279 36.392 124.751 35.767C125.228 35.1364 125.881 34.642 126.711 34.2841C127.546 33.9205 128.549 33.7386 129.719 33.7386C130.555 33.7386 131.325 33.8381 132.029 34.0369C132.734 34.2301 133.347 34.5142 133.87 34.8892C134.393 35.2585 134.796 35.7131 135.08 36.2528C135.37 36.7926 135.515 37.4091 135.515 38.1023V47H131.594V45.1761H131.492C131.259 45.6193 130.961 45.9943 130.597 46.3011C130.239 46.608 129.816 46.8381 129.327 46.9915C128.844 47.1449 128.299 47.2216 127.691 47.2216ZM128.978 44.4943C129.427 44.4943 129.83 44.4034 130.188 44.2216C130.552 44.0398 130.842 43.7898 131.058 43.4716C131.273 43.1477 131.381 42.7727 131.381 42.3466V41.1023C131.262 41.1648 131.117 41.2216 130.947 41.2727C130.782 41.3239 130.6 41.3722 130.401 41.4176C130.202 41.4631 129.998 41.5028 129.788 41.5369C129.577 41.571 129.376 41.6023 129.183 41.6307C128.79 41.6932 128.455 41.7898 128.177 41.9205C127.904 42.0511 127.694 42.2216 127.546 42.4318C127.404 42.6364 127.333 42.8807 127.333 43.1648C127.333 43.5966 127.487 43.9261 127.793 44.1534C128.106 44.3807 128.501 44.4943 128.978 44.4943ZM142.231 29.5455V47H138.063V29.5455H142.231ZM144.884 47V29.5455H149.102V36.5511H155.98V29.5455H160.19V47H155.98V39.9858H149.102V47H144.884ZM168.947 47.2472C167.572 47.2472 166.391 46.9659 165.402 46.4034C164.419 45.8352 163.661 45.0455 163.126 44.0341C162.598 43.017 162.334 41.8381 162.334 40.4972C162.334 39.1506 162.598 37.9716 163.126 36.9602C163.661 35.9432 164.419 35.1534 165.402 34.5909C166.391 34.0227 167.572 33.7386 168.947 33.7386C170.322 33.7386 171.501 34.0227 172.484 34.5909C173.473 35.1534 174.232 35.9432 174.76 36.9602C175.294 37.9716 175.561 39.1506 175.561 40.4972C175.561 41.8381 175.294 43.017 174.76 44.0341C174.232 45.0455 173.473 45.8352 172.484 46.4034C171.501 46.9659 170.322 47.2472 168.947 47.2472ZM168.973 44.1023C169.473 44.1023 169.896 43.9489 170.243 43.642C170.589 43.3352 170.854 42.9091 171.036 42.3636C171.223 41.8182 171.317 41.1875 171.317 40.4716C171.317 39.7443 171.223 39.108 171.036 38.5625C170.854 38.017 170.589 37.5909 170.243 37.2841C169.896 36.9773 169.473 36.8239 168.973 36.8239C168.456 36.8239 168.018 36.9773 167.661 37.2841C167.308 37.5909 167.038 38.017 166.851 38.5625C166.669 39.108 166.578 39.7443 166.578 40.4716C166.578 41.1875 166.669 41.8182 166.851 42.3636C167.038 42.9091 167.308 43.3352 167.661 43.642C168.018 43.9489 168.456 44.1023 168.973 44.1023ZM177.696 47V33.9091H181.659V36.3125H181.804C182.077 35.517 182.537 34.8892 183.185 34.429C183.832 33.9688 184.605 33.7386 185.503 33.7386C186.412 33.7386 187.19 33.9716 187.838 34.4375C188.486 34.9034 188.898 35.5284 189.074 36.3125H189.21C189.455 35.5341 189.932 34.9119 190.642 34.446C191.352 33.9744 192.19 33.7386 193.156 33.7386C194.395 33.7386 195.401 34.1364 196.173 34.9318C196.946 35.7216 197.332 36.8068 197.332 38.1875V47H193.165V39.142C193.165 38.4886 192.997 37.9915 192.662 37.6506C192.327 37.304 191.892 37.1307 191.358 37.1307C190.784 37.1307 190.332 37.3182 190.003 37.6932C189.679 38.0625 189.517 38.5597 189.517 39.1847V47H185.511V39.0994C185.511 38.4915 185.347 38.0114 185.017 37.6591C184.688 37.3068 184.253 37.1307 183.713 37.1307C183.349 37.1307 183.028 37.2187 182.75 37.3949C182.472 37.5653 182.253 37.8097 182.094 38.1278C181.94 38.446 181.864 38.821 181.864 39.2528V47H177.696ZM206.034 47.2472C204.665 47.2472 203.483 46.9773 202.489 46.4375C201.5 45.892 200.739 45.1165 200.205 44.1108C199.676 43.0994 199.412 41.8977 199.412 40.5057C199.412 39.1534 199.679 37.9716 200.213 36.9602C200.747 35.9432 201.5 35.1534 202.472 34.5909C203.443 34.0227 204.588 33.7386 205.906 33.7386C206.838 33.7386 207.69 33.8835 208.463 34.1733C209.236 34.4631 209.903 34.892 210.466 35.4602C211.028 36.0284 211.466 36.7301 211.778 37.5653C212.091 38.3949 212.247 39.3466 212.247 40.4205V41.4602H200.869V39.0398H208.369C208.364 38.5966 208.259 38.2017 208.054 37.8551C207.849 37.5085 207.568 37.2386 207.21 37.0455C206.858 36.8466 206.452 36.7472 205.991 36.7472C205.526 36.7472 205.108 36.8523 204.739 37.0625C204.369 37.267 204.077 37.5483 203.861 37.9062C203.645 38.2585 203.531 38.6591 203.52 39.108V41.571C203.52 42.1051 203.625 42.5739 203.835 42.9773C204.045 43.375 204.344 43.6847 204.73 43.9062C205.116 44.1278 205.577 44.2386 206.111 44.2386C206.48 44.2386 206.815 44.1875 207.116 44.0852C207.418 43.983 207.676 43.8324 207.892 43.6335C208.108 43.4347 208.27 43.1903 208.378 42.9006L212.205 43.0114C212.045 43.8693 211.696 44.6165 211.156 45.2528C210.622 45.8835 209.92 46.375 209.051 46.7273C208.182 47.0739 207.176 47.2472 206.034 47.2472Z" fill="#2179FF"/>
</svg>
