<svg width="87" height="55" viewBox="0 0 87 55" fill="none" xmlns="http://www.w3.org/2000/svg">
<path d="M26 45H8V17" stroke="#2179FF" stroke-width="4" stroke-miterlimit="10"/>
<path d="M46 21L24 3L2 21" stroke="#2179FF" stroke-width="4" stroke-miterlimit="10"/>
<path d="M43.4547 31.25C43.2957 30.697 43.0722 30.2083 42.7843 29.7841C42.4964 29.3523 42.1441 28.9886 41.7275 28.6932C41.3184 28.3902 40.8487 28.1591 40.3184 28C39.7957 27.8409 39.2161 27.7614 38.5797 27.7614C37.3904 27.7614 36.3449 28.0568 35.4434 28.6477C34.5494 29.2386 33.8525 30.0985 33.3525 31.2273C32.8525 32.3485 32.6025 33.7197 32.6025 35.3409C32.6025 36.9621 32.8487 38.3409 33.3411 39.4773C33.8335 40.6136 34.5305 41.4811 35.432 42.0795C36.3335 42.6705 37.3979 42.9659 38.6252 42.9659C39.7388 42.9659 40.6896 42.7689 41.4775 42.375C42.2729 41.9735 42.879 41.4091 43.2957 40.6818C43.7199 39.9545 43.932 39.0947 43.932 38.1023L44.932 38.25H38.932V34.5455H48.6707V37.4773C48.6707 39.5227 48.2388 41.2803 47.3752 42.75C46.5116 44.2121 45.3222 45.3409 43.807 46.1364C42.2919 46.9242 40.557 47.3182 38.6025 47.3182C36.4207 47.3182 34.504 46.8371 32.8525 45.875C31.201 44.9053 29.9131 43.5303 28.9888 41.75C28.0722 39.9621 27.6138 37.8409 27.6138 35.3864C27.6138 33.5 27.8866 31.8182 28.432 30.3409C28.985 28.8561 29.7578 27.5985 30.7502 26.5682C31.7426 25.5379 32.8979 24.7538 34.2161 24.2159C35.5343 23.678 36.9623 23.4091 38.5002 23.4091C39.8184 23.4091 41.0457 23.6023 42.182 23.9886C43.3184 24.3674 44.326 24.9053 45.2047 25.6023C46.0911 26.2992 46.8146 27.1288 47.3752 28.0909C47.9358 29.0455 48.2957 30.0985 48.4547 31.25H43.4547ZM62.3553 23.7273V47H57.4349V28.3977H57.2985L51.969 31.7386V27.375L57.7303 23.7273H62.3553ZM67.8866 47V43.4545L76.1707 35.7841C76.8752 35.1023 77.4661 34.4886 77.9434 33.9432C78.4282 33.3977 78.7957 32.8636 79.0457 32.3409C79.2957 31.8106 79.4207 31.2386 79.4207 30.625C79.4207 29.9432 79.2654 29.3561 78.9547 28.8636C78.6441 28.3636 78.2199 27.9811 77.682 27.7159C77.1441 27.4432 76.5343 27.3068 75.8525 27.3068C75.1404 27.3068 74.5191 27.4508 73.9888 27.7386C73.4585 28.0265 73.0494 28.4394 72.7616 28.9773C72.4737 29.5152 72.3297 30.1553 72.3297 30.8977H67.6593C67.6593 29.375 68.004 28.053 68.6934 26.9318C69.3828 25.8106 70.3487 24.9432 71.5911 24.3295C72.8335 23.7159 74.2654 23.4091 75.8866 23.4091C77.5532 23.4091 79.004 23.7045 80.2388 24.2955C81.4813 24.8788 82.4472 25.6894 83.1366 26.7273C83.826 27.7652 84.1707 28.9545 84.1707 30.2955C84.1707 31.1742 83.9964 32.0417 83.6479 32.8977C83.307 33.7538 82.6972 34.7045 81.8184 35.75C80.9396 36.7879 79.701 38.0341 78.1025 39.4886L74.7047 42.8182V42.9773H84.4775V47H67.8866Z" fill="#2179FF"/>
</svg>
